<?xml version="1.0" encoding="UTF-8"?>
<svg width="602px" height="359px" viewBox="0 0 602 359" version="1.1" xmlns="http://www.w3.org/2000/svg" xmlns:xlink="http://www.w3.org/1999/xlink">
    <!-- Generator: Sketch 49 (51002) - http://www.bohemiancoding.com/sketch -->
    <title>P2-I1</title>
    <desc>Created with Sketch.</desc>
    <defs>
        <filter x="-1.6%" y="-2.5%" width="104.7%" height="110.3%" filterUnits="objectBoundingBox" id="filter-1">
            <feOffset dx="6" dy="13" in="SourceAlpha" result="shadowOffsetOuter1"></feOffset>
            <feGaussianBlur stdDeviation="2" in="shadowOffsetOuter1" result="shadowBlurOuter1"></feGaussianBlur>
            <feColorMatrix values="0 0 0 0 0   0 0 0 0 0   0 0 0 0 0  0 0 0 0.0198709239 0" type="matrix" in="shadowBlurOuter1" result="shadowMatrixOuter1"></feColorMatrix>
            <feMerge>
                <feMergeNode in="shadowMatrixOuter1"></feMergeNode>
                <feMergeNode in="SourceGraphic"></feMergeNode>
            </feMerge>
        </filter>
        <rect id="path-2" x="0" y="0" width="442.569495" height="277.465699" rx="0.315"></rect>
        <rect id="path-4" x="0" y="0" width="445.5" height="286.2"></rect>
        <rect id="path-6" x="63.2312925" y="55.1247166" width="341.124717" height="212.716553"></rect>
    </defs>
    <g id="Page-1" stroke="none" stroke-width="1" fill="none" fill-rule="evenodd">
        <g id="FINCHAIN_VER1.0_20180208-Copy" transform="translate(-824.000000, -1463.000000)">
            <g id="S3" transform="translate(0.000000, 1206.000000)">
                <g id="1" transform="translate(195.000000, 257.000000)">
                    <g id="P2-I1" filter="url(#filter-1)" transform="translate(630.000000, 0.000000)">
                        <g id="Group-35">
                            <g id="Macbook">
                                <g id="Body">
                                    <path d="M134.069149,-77.6903958 L449.566011,-77.6903958 C454.698117,-77.6903958 458.858511,-73.5300018 458.858511,-68.3978958 L458.858511,397.348897 C458.858511,402.481003 454.698117,406.641397 449.566011,406.641397 L134.069149,406.641397 C132.503422,406.641397 131.234149,405.372124 131.234149,403.806397 L131.234149,-74.8553958 C131.234149,-76.421123 132.503422,-77.6903958 134.069149,-77.6903958 Z" id="Rectangle-2" stroke="#CBD2D4" stroke-width="0.945" fill="#EAEFF1" transform="translate(295.046330, 164.475501) rotate(-90.000000) translate(-295.046330, -164.475501) "></path>
                                    <g id="Group" transform="translate(292.587611, 12.023514)">
                                        <path d="M2.76605934,4.00783788 C1.91872317,4.00783788 1.22935971,3.3163317 1.22935971,2.46636177 C1.22935971,1.61639185 1.91872317,0.924885664 2.76605934,0.924885664 C3.61339552,0.924885664 4.30275898,1.61639185 4.30275898,2.46636177 C4.30275898,3.3163317 3.61339552,4.00783788 2.76605934,4.00783788" id="Fill-9" fill="#BAC1C3"></path>
                                        <path d="M2.45871942,0 C1.10291128,0 0,1.10633942 0,2.46636177 C0,3.82638412 1.10291128,4.93272354 2.45871942,4.93272354 C3.81452755,4.93272354 4.91743883,3.82638412 4.91743883,2.46636177 C4.91743883,1.10633942 3.81452755,0 2.45871942,0 M2.45871942,1.40934958 C3.04073343,1.40934958 3.51245631,1.88253871 3.51245631,2.46636177 C3.51245631,3.05018484 3.04073343,3.52337396 2.45871942,3.52337396 C1.87670541,3.52337396 1.40498252,3.05018484 1.40498252,2.46636177 C1.40498252,1.88253871 1.87670541,1.40934958 2.45871942,1.40934958" id="Fill-11" fill="#D0D7DA"></path>
                                    </g>
                                    <rect id="Rectangle-3" fill="#DDE3E5" x="73.4542426" y="26.2050938" width="443.798855" height="278.69888" rx="0.315"></rect>
                                    <g id="Group-2" transform="translate(0.000000, 329.567592)">
                                        <path d="M0.307339927,0.314704385 L0.307339927,4.04427275 C11.1662838,8.02160224 35.8559246,10.2701904 74.3762624,10.7900371 C113.000247,10.7274147 253.352147,10.7274147 495.431963,10.7900371 C542.677873,11.0537741 574.188019,8.72289359 589.962401,3.79739571 L589.96225,0.597144704 C589.96225,0.423233928 589.821311,0.282228042 589.647401,0.28214474 L0.622339963,-0.000295578962 C0.448370287,-0.000378909122 0.307272447,0.140583826 0.307189117,0.314553502 C0.307189093,0.314603796 0.307189081,0.314654091 0.307189081,0.314704385 Z" id="Path-37" stroke="#CBD2D4" stroke-width="1.89"></path>
                                        <path d="M590.4,3.69954266 C590.4,3.69954266 584.319507,11.098628 458.106169,10.8343749 C416.499303,10.7472626 356.886599,10.7456001 295.66101,10.7825162 C233.712915,10.7455948 173.970255,10.7471167 132.29376,10.8343749 C6.08048944,11.098628 0,3.69954266 0,3.69954266 L295.35367,3.69954266 L590.4,3.69954266 Z" id="Combined-Shape" fill="#CBD2D4"></path>
                                        <path d="M0.315,0 L590.085,0 C590.25897,-3.19577147e-17 590.4,0.141030304 590.4,0.315 L590.4,3.69954266 L0,3.69954266 L5.55111512e-17,0.315 C3.42060081e-17,0.141030304 0.141030304,4.20535773e-16 0.315,3.88578059e-16 Z" id="Rectangle-5" fill="#EAEFF1"></path>
                                        <path d="M239.417803,0 L351.289537,0 L351.289537,3.69954266 C351.289537,3.69954266 337.198721,4.93272354 295.574571,4.93272354 C253.95042,4.93272354 239.417803,3.69954266 239.417803,3.69954266 L239.417803,0 Z" id="Rectangle-10" fill="#D9E0E3"></path>
                                    </g>
                                </g>
                                <g id="Screen" transform="translate(74.068922, 26.821684)">
                                    <mask id="mask-3" fill="white">
                                        <use xlink:href="#path-2"></use>
                                    </mask>
                                    <use id="Mask" fill="#343434" xlink:href="#path-2"></use>
                                </g>
                            </g>
                            <g id="Group-11-Copy-3" transform="translate(72.900000, 26.100000)">
                                <mask id="mask-5" fill="white">
                                    <use xlink:href="#path-4"></use>
                                </mask>
                                <g id="Rectangle-17"></g>
                                <g id="Group" mask="url(#mask-5)">
                                    <g transform="translate(-6.000000, 0.000000)">
                                        <rect id="Rectangle-43" fill="#F8F8F8" fill-rule="evenodd" x="0" y="0" width="466.938776" height="286"></rect>
                                        <rect id="Rectangle-17" fill="#909DA0" fill-rule="evenodd" x="0" y="25.9410431" width="466.938776" height="19.4557823"></rect>
                                        <rect id="Rectangle" fill="#F8F8F8" fill-rule="evenodd" x="139.75737" y="25.9410431" width="39.2358277" height="19.4557823"></rect>
                                        <path d="M171.954616,34.7075393 L173.729393,37.0224656 C173.838354,37.164589 173.811471,37.3681334 173.669348,37.4770947 C173.612736,37.5204973 173.543391,37.5440205 173.472056,37.5440205 L169.922502,37.5440205 C169.743417,37.5440205 169.598239,37.398843 169.598239,37.2197575 C169.598239,37.1484222 169.621762,37.0790777 169.665165,37.0224656 L171.439942,34.7075393 C171.548903,34.5654159 171.752447,34.5385327 171.894571,34.647494 C171.917131,34.6647905 171.93732,34.6849787 171.954616,34.7075393 Z" id="Triangle" fill="#D8D8D8" fill-rule="evenodd" transform="translate(171.697279, 35.957951) scale(1, -1) translate(-171.697279, -35.957951) "></path>
                                        <rect id="Rectangle-19" fill="#5A676A" fill-rule="evenodd" x="0" y="0" width="466.938776" height="25.9410431"></rect>
                                        <path d="M407.274274,6.80952381 C403.871744,6.80952381 401.113379,9.5679533 401.113379,12.9704599 C401.113379,16.3728844 403.871744,19.1315193 407.274274,19.1315193 C410.676803,19.1315193 413.435374,16.3728844 413.435374,12.9704599 C413.435374,9.56787115 410.676803,6.80952381 407.274274,6.80952381 Z M407.293045,15.8770834 L407.293045,15.8770013 L407.255421,15.8770013 L404.623727,15.8770013 C404.623727,13.9524506 406.314005,13.9529025 406.689092,13.4496671 L406.732015,13.2201882 C406.205035,12.9531268 405.833028,12.309255 405.833028,11.5562093 C405.833028,10.5641144 406.478383,9.75972654 407.274274,9.75972654 C408.070165,9.75972654 408.715519,10.5641144 408.715519,11.5562093 C408.715519,12.3028475 408.350125,12.9426941 407.830169,13.2139861 L407.879047,13.4747632 C408.290568,13.9536007 409.924615,13.9848167 409.924615,15.8770834 L407.293045,15.8770834 Z" id="Shape" fill="#FFFFFF" fill-rule="nonzero"></path>
                                        <g id="Finchain-Logo_horizontal" stroke-width="1" fill="none" fill-rule="evenodd" transform="translate(63.231293, 6.485261)">
                                            <text id="X" fill="#000000" font-family="Helvetica" font-size="3.41329514" font-weight="normal">
                                                <tspan x="43.6901778" y="9.46127223">X</tspan>
                                            </text>
                                            <path d="M20.9340062,4.89962709 L16.7459871,4.89962709 L16.7459871,9.5572264 L15.7011577,9.5572264 L15.701159,4.38746303 C15.7008472,4.24991399 15.7548833,4.11766432 15.8517884,4.01880803 C15.8992503,3.97096842 15.9561458,3.93324026 16.0189609,3.90795373 C16.0852626,3.88120341 16.1563019,3.86776511 16.2279265,3.86842429 L20.9348769,3.86840116 L20.9340062,4.89962709 Z M20.4673163,7.23186409 L17.1639183,7.23186409 L17.1639183,6.19292727 L20.468187,6.19292727 L20.4673163,7.23186409 Z" id="Shape" fill="#FFFFFF" fill-rule="nonzero"></path>
                                            <path d="M22.755301,4.35145847 L21.6175359,4.35145847 L21.6175359,3.41329514 L22.755301,3.41329514 L22.755301,4.35145847 Z M22.755301,9.5572264 L21.6175359,9.5572264 L21.6175359,5.23855941 L22.755301,5.23855941 L22.755301,9.5572264 Z" id="Shape" fill="#FFFFFF" fill-rule="nonzero"></path>
                                            <path d="M28.438687,9.5572264 L27.4019826,9.5572264 L27.4019826,7.15374167 C27.4038406,7.02834592 27.3800236,6.90390145 27.332005,6.788107 C27.2879591,6.68372961 27.2236441,6.58918553 27.1428065,6.50998206 C27.0622108,6.43227062 26.9666778,6.37183612 26.8620323,6.33236332 C26.7516004,6.29060666 26.6344831,6.26946423 26.5164642,6.26998016 L24.7022314,6.26998016 L24.7022314,9.55376067 L23.6655269,9.55376067 L23.6655269,5.74925401 C23.6650165,5.67995743 23.6785362,5.61127796 23.7052673,5.54737516 C23.7311014,5.48585296 23.7690003,5.43016515 23.816713,5.38361935 C23.8651176,5.33661427 23.9219952,5.29927169 23.9843135,5.27358238 C24.0486771,5.24690869 24.1176936,5.23335978 24.1873348,5.23372647 L26.5225116,5.23372647 C26.6612831,5.23469112 26.799615,5.24949331 26.9354656,5.27791454 C27.0844142,5.30849082 27.2293559,5.35616996 27.3674258,5.42000953 C27.5120226,5.48680925 27.6485422,5.56994755 27.7743323,5.66780933 C27.9072398,5.77085044 28.0237597,5.89355218 28.1199004,6.03171112 C28.2238419,6.1831611 28.3039691,6.34972583 28.3574785,6.52557785 C28.4180648,6.73050517 28.4471958,6.94348757 28.4438705,7.1572074 L28.438687,9.5572264 Z" id="Shape" fill="#FFFFFF" fill-rule="nonzero"></path>
                                            <path d="M33.4502924,9.5572264 L30.6008541,9.5572264 C30.4387458,9.55465466 30.277861,9.52897577 30.1231721,9.48098338 C29.9484034,9.42914677 29.785548,9.34409416 29.6437373,9.23059438 C29.4904526,9.10688065 29.3650574,8.95282512 29.2756154,8.77833465 C29.1709388,8.56631871 29.1200975,8.33228429 29.1274902,8.09647948 L29.1274902,6.68944922 C29.1280737,6.58460007 29.1395279,6.48008615 29.161673,6.37754597 C29.1854116,6.26548543 29.2212608,6.1562702 29.2686036,6.05178034 C29.3187133,5.94134885 29.381975,5.83722258 29.4570469,5.74160988 C29.5359838,5.64110549 29.6303203,5.55340831 29.7366442,5.4816905 C29.8531873,5.40351002 29.9807788,5.34278376 30.1152838,5.30147973 C30.2726222,5.25422694 30.4364332,5.23142861 30.6008541,5.23390069 L33.4502924,5.23390069 L33.4502924,6.27357821 L30.6008541,6.27357821 C30.4864101,6.26540894 30.3734179,6.30284775 30.287074,6.37754597 C30.2092758,6.4654992 30.1707156,6.5807864 30.1801434,6.6972468 L30.1801434,8.09734587 C30.1723896,8.21169465 30.2119284,8.32425623 30.2897035,8.40924913 C30.3773904,8.48620204 30.4926175,8.52520943 30.6096189,8.51754887 L33.4502924,8.51754887 L33.4502924,9.5572264 Z" id="Shape" fill="#FFFFFF" fill-rule="nonzero"></path>
                                            <path d="M35.3972346,9.5572264 L34.3605044,9.5572264 L34.3605044,3.41329514 L35.3972346,3.41329514 L35.3972346,9.5572264 Z M39.1381027,9.5572264 L38.1013725,9.5572264 L38.1013725,6.69294295 C38.1094214,6.5799657 38.0721009,6.46844586 37.9976995,6.38315036 C37.9127378,6.30695015 37.800389,6.26881467 37.6866805,6.27757859 L35.8162464,6.27757859 L35.8162464,5.23916767 L37.6866805,5.23916767 C37.7912276,5.23982817 37.8954367,5.25113579 37.9976995,5.27291603 C38.109427,5.29641087 38.2183265,5.33180257 38.3225416,5.3784878 C38.4326984,5.42788712 38.536538,5.49034998 38.6318328,5.56453642 C38.7319471,5.64224994 38.8193861,5.73508556 38.8910154,5.83971532 C38.9689742,5.95477737 39.0295283,6.0807475 39.0707153,6.21354325 C39.1181953,6.36882067 39.1412221,6.53056179 39.1389667,6.69294295 L39.1381027,9.5572264 Z" id="Shape" fill="#FFFFFF" fill-rule="nonzero"></path>
                                            <path d="M44.6003899,8.12457376 C44.5980527,8.28283743 44.5721745,8.43989007 44.5235935,8.59064501 C44.4715615,8.75969658 44.3874357,8.91730808 44.2757507,9.05498364 C44.1536741,9.20396867 44.0014539,9.32585772 43.8289355,9.41276696 C43.6203619,9.51420912 43.389995,9.56357352 43.1578401,9.55657333 L41.2649843,9.55657333 C41.1055524,9.55427861 40.947339,9.5285891 40.7954793,9.48033863 C40.6251823,9.42868717 40.4664096,9.34517661 40.3277197,9.23430845 C40.1775629,9.11319795 40.0547622,8.96207406 39.9673004,8.7907611 C39.8651109,8.5837129 39.8153828,8.35503084 39.8224345,8.12457376 C39.8248791,7.96575266 39.8507526,7.80814408 39.8992309,7.65676991 C39.9510582,7.48710796 40.0351931,7.32889146 40.1470737,7.19069866 C40.2691134,7.04167692 40.4213422,6.91978107 40.5938889,6.83291535 C40.8024625,6.73147319 41.0328294,6.68210879 41.2649843,6.68910898 L43.1543493,6.68910898 L43.1543493,7.68102641 L41.2649843,7.68102641 C41.1410806,7.67379837 41.0203068,7.72137396 40.9351091,7.81097192 C40.8563355,7.89976475 40.8145294,8.01497457 40.8181692,8.1332368 C40.8108756,8.25466996 40.8604737,8.37264304 40.9525628,8.45290276 C41.0415825,8.5287191 41.1555658,8.56941599 41.2728385,8.56725481 L43.1543493,8.56725481 C43.2782007,8.57470886 43.3991092,8.52783924 43.4850973,8.43904191 C43.563938,8.35132029 43.6058037,8.23687645 43.6020372,8.11937594 L43.6020372,6.66485248 C43.6081359,6.54391302 43.562126,6.4261071 43.4754977,6.340855 C43.3889999,6.26031475 43.2737471,6.21729415 43.155222,6.22130513 L40.8539493,6.22130513 L40.8539493,5.23371922 L43.1543493,5.23371922 C43.3137756,5.2360772 43.4719798,5.26176521 43.6238543,5.30995392 C43.7940694,5.3618021 43.9528062,5.44529375 44.091614,5.55598409 C44.2416782,5.67718609 44.3644618,5.82828889 44.4520333,5.99953145 C44.5542228,6.20657965 44.6039509,6.43526171 44.5968991,6.66571879 L44.6003899,8.12457376 Z" id="Shape" fill="#FFFFFF" fill-rule="nonzero"></path>
                                            <path d="M46.4208139,4.35145847 L45.2830489,4.35145847 L45.2830489,3.41329514 L46.4208139,3.41329514 L46.4208139,4.35145847 Z M46.4208139,9.5572264 L45.2830489,9.5572264 L45.2830489,5.23855941 L46.4208139,5.23855941 L46.4208139,9.5572264 Z" id="Shape" fill="#FFFFFF" fill-rule="nonzero"></path>
                                            <path d="M52.1050631,9.5572264 L51.0681712,9.5572264 L51.0681712,7.15374167 C51.0700295,7.02834592 51.0462082,6.90390145 50.998181,6.788107 C50.9541271,6.68372961 50.8898005,6.58918553 50.8089482,6.50998206 C50.728338,6.43227062 50.6327877,6.37183612 50.5281233,6.33236332 C50.4176714,6.29060666 50.3005329,6.26946423 50.1824927,6.26998016 L48.3679318,6.26998016 L48.3679318,9.55376067 L47.3310399,9.55376067 L47.3310399,5.74925401 C47.3305294,5.67995743 47.3440515,5.61127796 47.3707874,5.54737516 C47.3966262,5.48585296 47.434532,5.43016515 47.4822533,5.38361935 C47.5306667,5.33661427 47.5875546,5.29927169 47.6498842,5.27358238 C47.7142594,5.24690869 47.7832884,5.23335978 47.8529422,5.23372647 L50.1876771,5.23372647 C50.3264737,5.23469112 50.4648307,5.24949331 50.6007058,5.27791454 C50.7496813,5.30849082 50.8946492,5.35616996 51.032744,5.42000953 C51.1773671,5.48680925 51.3139113,5.56994755 51.4397241,5.66780933 C51.5726557,5.77085044 51.6891967,5.89355218 51.7853548,6.03171112 C51.8893151,6.1831611 51.9694567,6.34972583 52.0229758,6.52557785 C52.0835731,6.73050517 52.1127093,6.94348757 52.1093835,7.1572074 L52.1050631,9.5572264 Z" id="Shape" fill="#FFFFFF" fill-rule="nonzero"></path>
                                            <path d="M6.48526077,12.9705215 C2.90355015,12.9705215 1.2177735e-15,10.0669714 0,6.48526077 C-1.2177735e-15,2.90355015 2.90355015,1.2177735e-15 6.48526077,0 C10.0669714,-1.2177735e-15 12.9705215,2.90355015 12.9705215,6.48526077 C12.966743,10.0654051 10.0654051,12.966743 6.48526077,12.9705215 Z M6.48526077,0.103688762 C2.9603426,0.103688762 0.10283183,2.96119953 0.10283183,6.4861177 C0.10283183,10.0110359 2.9603426,12.8685466 6.48526077,12.8685466 C10.0101789,12.8685466 12.8676897,10.0110359 12.8676897,6.4861177 C12.8620233,2.96410447 10.0072765,0.110890921 6.48526077,0.10711649 L6.48526077,0.103688762 Z" id="Shape" fill="#FFFFFF" fill-rule="nonzero"></path>
                                            <path d="M6.485905,0.455106019 C4.12762174,0.455175787 1.98573638,1.82955137 1.00336237,3.97306868 C0.0209883673,6.11658599 0.378378631,8.63593735 1.91816733,10.4218037 L2.90474381,8.65727831 L3.34188891,7.88599474 L2.49674172,7.88599474 L2.49674172,7.11471117 L3.77731971,7.11471117 L4.29160805,6.20116863 L2.11016832,6.20116863 L2.11016832,5.42988506 L4.73475318,5.42988506 L6.15504617,2.91892854 C6.24558856,2.75395227 6.41771222,2.65023998 6.60590562,2.64726533 L10.8513559,2.64726533 L10.4467824,3.86160846 C10.3676125,4.05942261 10.1764526,4.18954894 9.96335138,4.19068945 L7.50933881,4.19068945 C7.32477191,4.19127221 7.15413806,4.28894448 7.06019366,4.44778397 L6.50819083,5.42817109 L9.21420469,5.42817109 L9.21420469,6.19945466 L6.07276003,6.19945466 L5.55847168,7.11299721 L8.20877097,7.11299721 L8.20877097,7.88428078 L5.12304088,7.88428078 L3.10017338,11.4767483 C5.24287482,12.9289543 8.07350897,12.8520651 10.1341841,11.2856818 C12.1948592,9.71929854 13.0258999,7.01283481 12.1992862,4.56022952 C11.3726726,2.10762423 9.07279773,0.45598089 6.48419071,0.455963001 L6.485905,0.455106019 Z" id="Shape" fill="#FFFFFF" fill-rule="nonzero"></path>
                                        </g>
                                        <text id="博客" fill="none" font-family="PingFangTC-Regular, PingFang TC" font-size="6.48526077" font-weight="normal">
                                            <tspan x="64.8526077" y="38.1292517" fill="#FFFFFF">博客</tspan>
                                        </text>
                                        <text id="评论" fill="none" font-family="PingFangTC-Regular, PingFang TC" font-size="6.48526077" font-weight="normal">
                                            <tspan x="94.0362812" y="37.8049887" fill="#FFFFFF">评论</tspan>
                                        </text>
                                        <text id="回复" fill="none" font-family="PingFangTC-Regular, PingFang TC" font-size="6.48526077" font-weight="normal">
                                            <tspan x="123.219955" y="38.1292517" fill="#FFFFFF">回复</tspan>
                                        </text>
                                        <text id="奖励" fill="none" font-family="PingFangTC-Semibold, PingFang TC" font-size="6.48526077" font-weight="500">
                                            <tspan x="152.403628" y="38.1292517" fill="#4A4A4A">奖励</tspan>
                                        </text>
                                        <g id="Rectangle-20" fill="none">
                                            <use fill="#FFFFFF" fill-rule="evenodd" xlink:href="#path-6"></use>
                                            <rect stroke="#F0EEF0" stroke-width="0.5" x="63.4812925" y="55.3747166" width="340.624717" height="212.216553"></rect>
                                        </g>
                                        <text id="今天" fill="none" font-family="PingFangTC-Thin, PingFang TC" font-size="4.53968254" font-weight="300">
                                            <tspan x="71.3378685" y="113.303855" fill="#4A4A4A">今天</tspan>
                                        </text>
                                        <text id="昨天" fill="none" font-family="PingFangTC-Thin, PingFang TC" font-size="4.53968254" font-weight="300">
                                            <tspan x="70.3650794" y="194.693878" fill="#4A4A4A">昨天</tspan>
                                        </text>
                                        <rect id="Rectangle-2-Copy" fill="#F8F8F8" fill-rule="evenodd" x="66.7981859" y="118.680272" width="333.666667" height="16.2131519"></rect>
                                        <rect id="Rectangle-2-Copy" fill="#F8F8F8" fill-rule="evenodd" x="66.7981859" y="151.755102" width="333.666667" height="16.2131519"></rect>
                                        <rect id="Rectangle-2-Copy-2" fill-opacity="0.02" fill="#FFBF00" fill-rule="evenodd" x="66.7981859" y="134.893424" width="333.666667" height="16.2131519"></rect>
                                        <rect id="Rectangle-2-Copy-2" fill-opacity="0.02" fill="#FFBF00" fill-rule="evenodd" x="66.7981859" y="169.589569" width="333.666667" height="16.2131519"></rect>
                                        <rect id="Rectangle-2-Copy" fill="#F8F8F8" fill-rule="evenodd" x="66.7981859" y="201.69161" width="333.666667" height="16.2131519"></rect>
                                        <rect id="Rectangle-2-Copy" fill="#F8F8F8" fill-rule="evenodd" x="66.7981859" y="234.76644" width="333.666667" height="16.2131519"></rect>
                                        <rect id="Rectangle-2-Copy-2" fill-opacity="0.02" fill="#FFBF00" fill-rule="evenodd" x="66.7981859" y="217.904762" width="333.666667" height="16.2131519"></rect>
                                        <text id="31-分钟前" fill="none" font-family="PingFangTC-Regular, PingFang TC" font-size="4.53968254" font-weight="normal">
                                            <tspan x="71.3378685" y="127.571429" fill="#4A4A4A">31 分钟前</tspan>
                                        </text>
                                        <text id="0.713-FINPOWER/获取来源：" fill="none" font-family="PingFangTC-Regular, PingFang TC" font-size="4.53968254" font-weight="normal">
                                            <tspan x="98.9002268" y="125.301587" fill="#4A4A4A">0.713 FINPOWER/获取来源：</tspan>
                                            <tspan x="159.868163" y="125.301587" fill="#0769D5">finchain/fuented-equivalent-pares-lor-ipsum-factor-circular-siterteemas-loremipsum-notre-maces-</tspan>
                                            <tspan x="98.9002268" y="132.301587" fill="#0769D5">rore-trater </tspan>
                                        </text>
                                        <text id="0.316-FINPOWER/获取来源：" fill="none" font-family="PingFangTC-Regular, PingFang TC" font-size="4.53968254" font-weight="normal">
                                            <tspan x="98.9002268" y="144.433107" fill="#4A4A4A">0.316 FINPOWER/获取来源：</tspan>
                                            <tspan x="160.108766" y="144.433107" fill="#0769D5">finchain/fuented-equivalent-pares-lor-ipsum-factor-circular-siterteemas </tspan>
                                        </text>
                                        <text id="0.987-FINPOWER/获取来源：" fill="none" font-family="PingFangTC-Regular, PingFang TC" font-size="4.53968254" font-weight="normal">
                                            <tspan x="98.9002268" y="245.927438" fill="#4A4A4A">0.987 FINPOWER/获取来源：</tspan>
                                            <tspan x="160.77156" y="245.927438" fill="#0769D5">finchain/fuented-equivalent-pares</tspan>
                                        </text>
                                        <text id="0.238-FINPOWER/获取来源：" fill="none" font-family="PingFangTC-Regular, PingFang TC" font-size="4.53968254" font-weight="normal">
                                            <tspan x="98.9002268" y="227.444444" fill="#4A4A4A">0.238 FINPOWER/获取来源：</tspan>
                                            <tspan x="161.012163" y="227.444444" fill="#0769D5">finchain/fuented-equivalent-par-sa-sasa-operandi-es-lor-ipsum-factor-circular-siterteemas </tspan>
                                        </text>
                                        <text id="0.456-FINPOWER/获取来源：" fill="none" font-family="PingFangTC-Regular, PingFang TC" font-size="4.53968254" font-weight="normal">
                                            <tspan x="98.9002268" y="261.492063" fill="#4A4A4A">0.456 FINPOWER/获取来源：</tspan>
                                            <tspan x="161.012163" y="261.492063" fill="#0769D5">finchain/fuented-equivalent-pares-lo233</tspan>
                                        </text>
                                        <text id="0.085-FINPOWER/获取来源：" fill="none" font-family="PingFangTC-Regular, PingFang TC" font-size="4.53968254" font-weight="normal">
                                            <tspan x="98.9002268" y="208.312925" fill="#4A4A4A">0.085 FINPOWER/获取来源：</tspan>
                                            <tspan x="161.012163" y="208.312925" fill="#0769D5">finchain/fuented—sari-sari-store-mang-tomas-magaga-plorteir-equivalent-pares-lor-ipsum-factor-</tspan>
                                            <tspan x="98.9002268" y="215.312925" fill="#0769D5">circular-siterteemas </tspan>
                                        </text>
                                        <text id="0.056-FINPOWER/获取来源：" fill="none" font-family="PingFangTC-Regular, PingFang TC" font-size="4.53968254" font-weight="normal">
                                            <tspan x="98.9002268" y="176.210884" fill="#4A4A4A">0.056 FINPOWER/获取来源：</tspan>
                                            <tspan x="161.012163" y="176.210884" fill="#0769D5">finchain/fuented-chocolata—fermentada-puri-solem-naming-hksa-suvaru-equivalent-pares-lor-ipsum-</tspan>
                                            <tspan x="98.9002268" y="183.210884" fill="#0769D5">factor-circular-siterteemas </tspan>
                                        </text>
                                        <text id="0.797-FINPOWER/获取来源：" fill="none" font-family="PingFangTC-Regular, PingFang TC" font-size="4.53968254" font-weight="normal">
                                            <tspan x="98.9002268" y="162.9161" fill="#4A4A4A">0.797 FINPOWER/获取来源：</tspan>
                                            <tspan x="160.530957" y="162.9161" fill="#0769D5">finchain/fuented-equivalent-pares-lor-sorem-vatti-nurii-sor-ean-fleur-ipsum-factor-circular-siterteemas </tspan>
                                        </text>
                                        <text id="20:35" fill="none" font-family="PingFangTC-Regular, PingFang TC" font-size="4.53968254" font-weight="normal">
                                            <tspan x="71.3378685" y="210.582766" fill="#4A4A4A">20:35</tspan>
                                        </text>
                                        <text id="46-分钟前" fill="none" font-family="PingFangTC-Regular, PingFang TC" font-size="4.53968254" font-weight="normal">
                                            <tspan x="71.3378685" y="144.433107" fill="#4A4A4A">46 分钟前</tspan>
                                        </text>
                                        <text id="19:23" fill="none" font-family="PingFangTC-Regular, PingFang TC" font-size="4.53968254" font-weight="normal">
                                            <tspan x="71.3378685" y="227.444444" fill="#4A4A4A">19:23</tspan>
                                        </text>
                                        <text id="53-分钟前" fill="none" font-family="PingFangTC-Regular, PingFang TC" font-size="4.53968254" font-weight="normal">
                                            <tspan x="71.3378685" y="162.9161" fill="#4A4A4A">53 分钟前</tspan>
                                        </text>
                                        <text id="14:05" fill="none" font-family="PingFangTC-Regular, PingFang TC" font-size="4.53968254" font-weight="normal">
                                            <tspan x="71.3378685" y="245.927438" fill="#4A4A4A">14:05</tspan>
                                        </text>
                                        <text id="2-小时前" fill="none" font-family="PingFangTC-Regular, PingFang TC" font-size="4.53968254" font-weight="normal">
                                            <tspan x="71.3378685" y="178.480726" fill="#4A4A4A">2 小时前</tspan>
                                        </text>
                                        <text id="11:17" fill="none" font-family="PingFangTC-Regular, PingFang TC" font-size="4.53968254" font-weight="normal">
                                            <tspan x="71.3378685" y="261.492063" fill="#4A4A4A">11:17</tspan>
                                        </text>
                                        <text id="策展奖励" fill="none" font-family="PingFangTC-Semibold, PingFang TC" font-size="6.48526077" font-weight="500">
                                            <tspan x="71.3378685" y="70.2312925" fill="#4A4A4A">策展奖励</tspan>
                                        </text>
                                        <text id="上周预估策展奖励" fill="none" font-family="PingFangTC-Thin, PingFang TC" font-size="4.53968254" font-weight="300">
                                            <tspan x="71.3378685" y="84.7687075" fill="#4A4A4A">上周预估策展奖励</tspan>
                                        </text>
                                        <text id="策展奖励历史记录" fill="none" font-family="PingFangTC-Semibold, PingFang TC" font-size="5.18820862" font-weight="500">
                                            <tspan x="71.3378685" y="102.278912" fill="#4A4A4A">策展奖励历史记录</tspan>
                                        </text>
                                        <text id="72.11-FinPower" fill="none" font-family="PingFangTC-Semibold, PingFang TC" font-size="4.53968254" font-weight="500">
                                            <tspan x="117.077116" y="84.7687075" fill="#4A4A4A">72.11 FinPower</tspan>
                                        </text>
                                    </g>
                                </g>
                            </g>
                        </g>
                    </g>
                </g>
            </g>
        </g>
    </g>
</svg>