<?xml version="1.0" encoding="UTF-8"?>
<svg width="165px" height="179px" viewBox="0 0 165 179" version="1.1" xmlns="http://www.w3.org/2000/svg" xmlns:xlink="http://www.w3.org/1999/xlink">
    <!-- Generator: Sketch 48.2 (47327) - http://www.bohemiancoding.com/sketch -->
    <title>Group 50 Copy</title>
    <desc>Created with Sketch.</desc>
    <defs></defs>
    <g id="Page-1" stroke="none" stroke-width="1" fill="none" fill-rule="evenodd">
        <g id="Group-50-Copy" fill-rule="nonzero">
            <path d="M163.109651,45.2420963 L84.359763,0.492161877 C83.2048818,-0.164053959 81.7947666,-0.164053959 80.6398855,0.492161877 L1.88999732,45.2420963 C0.719998977,45.9060036 0,47.1439685 0,48.4791248 L0,130.520788 C0,131.855944 0.719998977,133.093909 1.88999732,133.757816 L80.6398855,178.507751 C81.2175018,178.836033 81.8548837,179 82.5,179 C83.1451163,179 83.7824982,178.836033 84.3601145,178.507751 L163.110003,133.757816 C164.280001,133.093909 165,131.855944 165,130.520788 L165,48.4791248 C164.999648,47.1439685 164.279649,45.9060036 163.109651,45.2420963 Z" id="Shape" fill="#61A6F3"></path>
            <g id="thumbs-up" transform="translate(49.000000, 54.000000)">
                <path d="M49.4689744,32.5022417 C49.0939872,30.2904873 47.8865256,27.65423 44.264141,27.65423 C43.7475641,27.65423 43.3062949,28.0147368 43.2198462,28.5074659 L42.5245897,32.4659454 C42.2498718,34.0298246 41.8729103,35.5194737 41.4045641,36.8935478 C40.1075513,40.6987914 38.4709487,42.6492398 35.5675128,43.8508382 C34.1724872,44.4280312 33.0397692,44.9218519 32.5867949,45.1207992 L27.1573077,45.1207992 C26.5720513,45.1207992 26.0979231,45.5795517 26.0979231,46.1458285 L26.0979231,64.7127485 C26.0979231,65.2790253 26.5721923,65.7377778 27.1573077,65.7377778 L32.4418205,65.7377778 L34.7183974,67.5210721 C36.6295769,69.0182261 39.0363205,69.8426706 41.4955256,69.8426706 L47.9498462,69.8426706 C48.5351026,69.8426706 49.0092308,69.3837817 49.0092308,68.8176413 C49.0092308,68.4346199 48.7919103,68.1014035 48.4705128,67.9255166 L48.4705128,47.4561793 L47.1527692,47.4561793 L49.3705385,36.6427485 C49.6614744,35.2255556 49.6944744,33.8326511 49.4689744,32.5022417 Z" id="Shape" fill="#FBDDCA"></path>
                <path d="M27.1574487,43.2762378 L18.9263462,43.2762378 C18.3410897,43.2762378 17.8669615,43.7351267 17.8669615,44.3012671 L17.8669615,66.2179532 C17.8669615,66.78423 18.3412308,67.2429825 18.9263462,67.2429825 L27.1574487,67.2429825 C27.7427051,67.2429825 28.2168333,66.78423 28.2168333,66.2179532 L28.2168333,44.3014035 C28.2169744,43.7351267 27.7425641,43.2762378 27.1574487,43.2762378 Z" id="Shape" fill="#FFFFFF"></path>
                <path d="M21.312359,14.791423 C21.0774103,14.0923782 20.4645128,13.5925536 19.7127051,13.4868031 L14.8954103,12.8094542 L12.7411026,8.58584795 C12.4047564,7.92664717 11.7238846,7.517154 10.9640385,7.517154 C10.2043333,7.517154 9.52346154,7.92664717 9.18711538,8.58584795 L7.03308974,12.8094542 L2.2159359,13.4868031 C1.46398718,13.5924172 0.851089744,14.0922417 0.616141026,14.791423 C0.381192308,15.4904678 0.573410256,16.2436842 1.11748718,16.7572904 L4.60335897,20.0448343 L3.78061538,24.6869396 C3.65214103,25.4116374 3.95421795,26.1300585 4.56866667,26.5623392 C4.91615385,26.8065887 5.32244872,26.9304873 5.73170513,26.9304873 C6.04661538,26.9304873 6.36307692,26.8569396 6.65570513,26.7082066 L10.9643205,24.5165107 L15.2729359,26.7082066 C15.9454872,27.0502924 16.7449615,26.994347 17.3595513,26.5623392 C17.9742821,26.1303314 18.276359,25.4116374 18.1478846,24.6869396 L17.325,20.0448343 L20.8108718,16.7570175 C21.3552308,16.2438207 21.5471667,15.4906043 21.312359,14.791423 Z" id="Shape" fill="#F8E71C"></path>
                <path d="M43.5982179,7.27426901 C43.3632692,6.57522417 42.7503718,6.07539961 41.9985641,5.96964912 L37.1812692,5.29230019 L35.0272436,1.06869396 C34.6908974,0.409493177 34.0100256,0 33.2503205,0 C32.4904744,0 31.8097436,0.409493177 31.4733974,1.06869396 L29.3190897,5.29230019 L24.5019359,5.96964912 C23.7499872,6.07512671 23.1370897,6.57508772 22.902141,7.27426901 C22.6671923,7.97345029 22.8594103,8.72653021 23.4034872,9.24013645 L26.8895,12.5278168 L26.0666154,17.1697856 C25.938141,17.8944834 26.2402179,18.6129045 26.8546667,19.0451852 C27.4693974,19.4773294 28.2687308,19.5331384 28.9415641,19.1911891 L33.2501795,16.9994932 L37.5587949,19.1911891 C37.8512821,19.3400585 38.1677436,19.4134698 38.4827949,19.4134698 C38.8920513,19.4134698 39.2983462,19.2892982 39.6458333,19.0453216 C40.2604231,18.6131774 40.5625,17.8946199 40.4338846,17.1700585 L39.611,12.5279532 L43.0971538,9.24013645 C43.6410897,8.72666667 43.8331667,7.97345029 43.5982179,7.27426901 Z" id="Shape" fill="#F8E71C"></path>
                <path d="M65.8431795,14.791423 C65.6082308,14.0923782 64.9953333,13.5925536 64.2435256,13.4868031 L59.4262308,12.8094542 L57.2719231,8.58584795 C56.9355769,7.92664717 56.2548462,7.517154 55.495,7.517154 C54.7351538,7.517154 54.0544231,7.92664717 53.7180769,8.58584795 L51.5637692,12.8094542 L46.7466154,13.4868031 C45.9946667,13.5924172 45.3817692,14.0922417 45.1468205,14.791423 C44.9120128,15.4906043 45.1039487,16.2438207 45.6483077,16.757154 L49.1341795,20.0449708 L48.3112949,24.6869396 C48.1828205,25.4116374 48.4848974,26.1300585 49.0993462,26.5623392 C49.7140769,26.9944834 50.5132692,27.0504288 51.1862436,26.7083431 L55.494859,24.5166472 L59.8034744,26.7083431 C60.0959615,26.8572125 60.4124231,26.9306238 60.7274744,26.9306238 C61.1367308,26.9306238 61.5430256,26.8064522 61.8905128,26.5624756 C62.5051026,26.1303314 62.8071795,25.4117739 62.6785641,24.6872125 L61.8556795,20.0451072 L65.3418333,16.7572904 C65.8860513,16.2436842 66.0781282,15.4904678 65.8431795,14.791423 Z" id="Shape" fill="#F8E71C"></path>
                <path d="M18.9263462,41.1452632 L1.11776923,41.1452632 C0.532512821,41.1452632 0.0583846154,41.604152 0.0583846154,42.1702924 L0.0583846154,68.3492008 C0.0583846154,68.9154776 0.532653846,69.37423 1.11776923,69.37423 L18.9263462,69.37423 C19.5116026,69.37423 19.9857308,68.9153411 19.9857308,68.3492008 L19.9857308,42.1702924 C19.9858718,41.6040156 19.5116026,41.1452632 18.9263462,41.1452632 Z" id="Shape" fill="#546F7A"></path>
                <ellipse id="Oval" fill="#353535" cx="13.3016795" cy="63.0802339" rx="1.68680769" ry="1.63210526"></ellipse>
                <path d="M59.1257051,46.2388889 L48.0894615,46.2388889 C46.1321667,46.2388889 44.5398462,47.7795712 44.5398462,49.6733918 L44.5398462,50.2481287 C44.5398462,52.1420858 46.1321667,53.6826316 48.0894615,53.6826316 L59.1257051,53.6826316 C61.083,53.6826316 62.6753205,52.1419493 62.6753205,50.2481287 L62.6753205,49.6733918 C62.6753205,47.7794347 61.083141,46.2388889 59.1257051,46.2388889 Z" id="Shape" fill="#FBDDCA"></path>
                <path d="M59.1257051,50.3705263 L48.0894615,50.3705263 C46.6347821,50.3705263 45.3824744,49.5192008 44.8345897,48.3046394 C44.6454744,48.72423 44.5398462,49.187076 44.5398462,49.6732554 L44.5398462,50.2479922 C44.5398462,52.1419493 46.1321667,53.6824951 48.0894615,53.6824951 L59.1257051,53.6824951 C61.083,53.6824951 62.6753205,52.1418129 62.6753205,50.2479922 L62.6753205,49.6732554 C62.6753205,49.1869396 62.5696923,48.72423 62.3805769,48.3046394 C61.8329744,49.5190643 60.5803846,50.3705263 59.1257051,50.3705263 Z" id="Shape" fill="#FBDDCA"></path>
                <path d="M60.4139744,51.6324366 L48.0894615,51.6324366 C46.1321667,51.6324366 44.5398462,53.1732554 44.5398462,55.0669396 L44.5398462,55.6416764 C44.5398462,57.5356335 46.1321667,59.0761793 48.0894615,59.0761793 L60.4139744,59.0761793 C62.3714103,59.0761793 63.9635897,57.5354971 63.9635897,55.6416764 L63.9635897,55.0669396 C63.9635897,53.1731189 62.3714103,51.6324366 60.4139744,51.6324366 Z" id="Shape" fill="#FBDDCA"></path>
                <path d="M60.4139744,55.7954581 L48.0894615,55.7954581 C46.6284359,55.7954581 45.3711923,54.9369006 44.8273974,53.7140156 C44.6426538,54.1295127 44.5398462,54.5867641 44.5398462,55.067076 L44.5398462,55.6418129 C44.5398462,57.53577 46.1321667,59.0763158 48.0894615,59.0763158 L60.4139744,59.0763158 C62.3714103,59.0763158 63.9635897,57.5356335 63.9635897,55.6418129 L63.9635897,55.0669396 C63.9635897,54.5866277 63.8607821,54.1293762 63.6760385,53.7138791 C63.1323846,54.9369006 61.875,55.7954581 60.4139744,55.7954581 Z" id="Shape" fill="#FBDDCA"></path>
                <path d="M58.8288462,57.0261209 L48.3866026,57.0261209 C46.2654359,57.0261209 44.5399872,58.6957505 44.5399872,60.7479922 C44.5399872,62.8003704 46.2655769,64.4698635 48.3866026,64.4698635 L58.8288462,64.4698635 C60.9500128,64.4698635 62.6754615,62.8002339 62.6754615,60.7479922 C62.6753205,58.6957505 60.9497308,57.0261209 58.8288462,57.0261209 Z" id="Shape" fill="#FBDDCA"></path>
                <path d="M58.8288462,61.1239181 L48.3866026,61.1239181 C46.8872179,61.1239181 45.5863974,60.2891033 44.9520641,59.0749513 C44.6890513,59.5783236 44.5398462,60.1465107 44.5398462,60.7479922 C44.5398462,62.8003704 46.2654359,64.4698635 48.3864615,64.4698635 L58.8287051,64.4698635 C60.9498718,64.4698635 62.6753205,62.8002339 62.6753205,60.7479922 C62.6753205,60.1465107 62.5261154,59.5783236 62.2631026,59.0749513 C61.6289103,60.2891033 60.3280897,61.1239181 58.8288462,61.1239181 Z" id="Shape" fill="#FBDDCA"></path>
                <path d="M55.9543205,62.4196686 L48.3864615,62.4196686 C46.2652949,62.4196686 44.5398462,64.0892982 44.5398462,66.1416764 C44.5398462,68.1940546 46.2654359,69.8635478 48.3864615,69.8635478 L55.9543205,69.8635478 C58.0754872,69.8635478 59.8010769,68.1939181 59.8010769,66.1416764 C59.8010769,64.0894347 58.0754872,62.4196686 55.9543205,62.4196686 Z" id="Shape" fill="#FBDDCA"></path>
                <path d="M55.9543205,66.5200585 L48.3864615,66.5200585 C46.8866538,66.5200585 45.5852692,65.6846979 44.951359,64.4698635 C44.6887692,64.972963 44.5398462,65.5406043 44.5398462,66.1416764 C44.5398462,68.1940546 46.2654359,69.8635478 48.3864615,69.8635478 L55.9543205,69.8635478 C58.0754872,69.8635478 59.8010769,68.1939181 59.8010769,66.1416764 C59.8010769,65.5406043 59.6521538,64.972963 59.3895641,64.4698635 C58.7555128,65.6846979 57.4542692,66.5200585 55.9543205,66.5200585 Z" id="Shape" fill="#FBDDCA"></path>
            </g>
        </g>
    </g>
</svg>