<?xml version="1.0" encoding="UTF-8"?>
<svg width="165px" height="179px" viewBox="0 0 165 179" version="1.1" xmlns="http://www.w3.org/2000/svg" xmlns:xlink="http://www.w3.org/1999/xlink">
    <!-- Generator: Sketch 49 (51002) - http://www.bohemiancoding.com/sketch -->
    <title>Group 50 Copy</title>
    <desc>Created with Sketch.</desc>
    <defs></defs>
    <g id="Page-1" stroke="none" stroke-width="1" fill="none" fill-rule="evenodd">
        <g id="FINCHAIN_VER1.0_20180208-Copy" transform="translate(-495.000000, -6070.000000)" fill-rule="nonzero">
            <g id="S6" transform="translate(0.000000, 5842.000000)">
                <g id="Group-50-Copy" transform="translate(495.000000, 228.000000)">
                    <path d="M163.109651,45.2420963 L84.359763,0.492161877 C83.2048818,-0.164053959 81.7947666,-0.164053959 80.6398855,0.492161877 L1.88999732,45.2420963 C0.719998977,45.9060036 0,47.1439685 0,48.4791248 L0,130.520788 C0,131.855944 0.719998977,133.093909 1.88999732,133.757816 L80.6398855,178.507751 C81.2175018,178.836033 81.8548837,179 82.5,179 C83.1451163,179 83.7824982,178.836033 84.3601145,178.507751 L163.110003,133.757816 C164.280001,133.093909 165,131.855944 165,130.520788 L165,48.4791248 C164.999648,47.1439685 164.279649,45.9060036 163.109651,45.2420963 Z" id="Shape" fill="#0769D5"></path>
                    <g id="thumbs-up" transform="translate(49.000000, 54.000000)">
                        <path d="M49.849398,32.8263574 C49.4667357,30.6244821 48.2345605,28 44.5380348,28 C44.0108848,28 43.5605839,28.3588966 43.4723658,28.8494248 L42.7628792,32.7902232 C42.4825385,34.3471171 42.0978615,35.8301125 41.6199295,37.198049 C40.2963701,40.9862961 38.6262704,42.9280324 35.6634084,44.1242638 C34.2398301,44.6988787 33.0839283,45.1904936 32.6216827,45.3885523 L27.0810676,45.3885523 C26.4838324,45.3885523 26,45.8452557 26,46.4090031 L26,64.8929915 C26,65.4567389 26.4839763,65.9134423 27.0810676,65.9134423 L32.4737411,65.9134423 L34.7969138,67.6887713 C36.7472103,69.1792381 39.2032139,70 41.7127528,70 L48.299177,70 C48.8964122,70 49.3802446,69.5431608 49.3802446,68.9795492 C49.3802446,68.5982386 49.1584761,68.2665106 48.8305004,68.0914092 L48.8305004,47.7135012 L47.4857859,47.7135012 L49.7489473,36.94837 C50.045838,35.5375072 50.0795134,34.1508243 49.849398,32.8263574 Z" id="Shape" fill="#FBDDCA"></path>
                        <path d="M26.9764273,43 L19.0235727,43 C18.4581006,43 18,43.4595256 18,44.0264515 L18,65.9735485 C18,66.540611 18.4582368,67 19.0235727,67 L26.9764273,67 C27.5418994,67 28,66.540611 28,65.9735485 L28,44.0265882 C28.0001362,43.4595256 27.5417632,43 26.9764273,43 Z" id="Shape" fill="#FFFFFF"></path>
                        <path d="M21.9009919,15.119391 C21.6648429,14.4352297 21.0488146,13.946047 20.2931663,13.8425481 L15.4512626,13.1796207 L13.2859498,9.04594017 C12.9478855,8.40077457 12.2635355,8 11.4998077,8 C10.7362217,8 10.0518717,8.40077457 9.71380739,9.04594017 L7.54877807,13.1796207 L2.70701616,13.8425481 C1.95122617,13.9459135 1.33519779,14.4350962 1.09904885,15.119391 C0.862899919,15.8035524 1.0560998,16.5407318 1.6029561,17.0434028 L5.1066352,20.2609509 L4.27968869,24.8042201 C4.15055803,25.5134882 4.45417809,26.2166132 5.07176567,26.6396902 C5.42102796,26.8787393 5.82939836,27 6.24074543,27 C6.55726438,27 6.87534254,26.9280182 7.16946561,26.7824519 L11.5000912,24.6374199 L15.8307169,26.7824519 C16.5067038,27.1172543 17.3102622,27.0625 17.9279916,26.6396902 C18.5458626,26.2168803 18.8494827,25.5134882 18.720352,24.8042201 L17.8932638,20.2609509 L21.3969429,17.0431357 C21.9440827,16.5408654 22.1369991,15.8036859 21.9009919,15.119391 Z" id="Shape" fill="#F8E71C"></path>
                        <path d="M43.9009202,7.11934099 C43.6647704,6.43518447 43.04874,5.94600522 42.2930892,5.84250701 L37.4511693,5.17958432 L35.2861328,1.04593282 C34.9480673,0.400771756 34.263715,0 33.5001264,0 C32.7363961,0 32.0521856,0.400771756 31.7141201,1.04593282 L29.5488,5.17958432 L24.7070219,5.84250701 C23.9512294,5.94573812 23.3351989,6.43505092 23.0990492,7.11934099 C22.8628995,7.80363105 23.0561,8.54067181 23.6029581,9.04333921 L27.1067907,12.2609982 L26.2796997,16.804102 C26.1505686,17.5133652 26.4541897,18.2164852 27.0717793,18.6395592 C27.6896525,19.0624996 28.4930718,19.1171199 29.1693445,18.7824535 L33.4999847,16.6374365 L37.8306248,18.7824535 C38.1246071,18.9281522 38.4426863,19 38.7593481,19 C39.1706965,19 39.5790683,18.8784731 39.9283318,18.6396927 C40.5460632,18.2167523 40.8496843,17.5134987 40.7204114,16.8043691 L39.8933204,12.2611318 L43.3972947,9.04333921 C43.9440111,8.54080535 44.1370699,7.80363105 43.9009202,7.11934099 Z" id="Shape" fill="#F8E71C"></path>
                        <path d="M65.9009276,15.119341 C65.6647806,14.4351845 65.0487571,13.9460052 64.2931148,13.842507 L59.4512494,13.1795843 L57.2859537,9.04593282 C56.9478921,8.40077176 56.2636892,8 55.4999675,8 C54.7362458,8 54.0520429,8.40077176 53.7139813,9.04593282 L51.5486856,13.1795843 L46.7069619,13.842507 C45.9511779,13.9458717 45.3351544,14.4350509 45.0990074,15.119341 C44.863002,15.803631 45.0559169,16.5408054 45.6030524,17.0432057 L49.1067038,20.2609982 L48.279622,24.804102 C48.1504924,25.5133652 48.4541101,26.2164852 49.0716928,26.6395592 C49.689559,27.0624996 50.4928275,27.1172534 51.1692344,26.7824535 L55.4998258,24.6374365 L59.8304171,26.7824535 C60.1243961,26.9281522 60.4424718,27 60.75913,27 C61.1704738,27 61.578841,26.8784731 61.9281005,26.6396927 C62.5458249,26.2167523 62.8494426,25.5134987 62.7201712,24.8043691 L61.8930895,20.2611318 L65.3970244,17.0433392 C65.9440181,16.5406718 66.1370747,15.8034975 65.9009276,15.119341 Z" id="Shape" fill="#F8E71C"></path>
                        <path d="M18.9367529,41 L1.06324706,41 C0.475856846,41 0,41.4551668 0,42.0167152 L0,67.9832848 C0,68.5449685 0.475998386,69 1.06324706,69 L18.9367529,69 C19.5241431,69 20,68.5448332 20,67.9832848 L20,42.0167152 C20.0001415,41.4550315 19.5241431,41 18.9367529,41 Z" id="Shape" fill="#9B9B9B"></path>
                        <circle id="Oval" fill="#353535" cx="13.5" cy="62.5" r="1.5"></circle>
                        <path d="M59.4769007,46 L48.5230993,46 C46.5804257,46 45,47.4488378 45,49.2297624 L45,49.7702376 C45,51.5512905 46.5804257,53 48.5230993,53 L59.4769007,53 C61.4195743,53 63,51.5511622 63,49.7702376 L63,49.2297624 C63,47.4487095 61.4197143,46 59.4769007,46 Z" id="Shape" fill="#FBDDCA"></path>
                        <path d="M59.4769007,49.9207348 L48.5230993,49.9207348 C47.0792865,49.9207348 45.8363337,49.1292246 45.2925418,48 C45.1048391,48.3901096 45,48.8204354 45,49.2724551 L45,49.8068101 C45,51.5676951 46.5804257,53 48.5230993,53 L59.4769007,53 C61.4195743,53 63,51.5675683 63,49.8068101 L63,49.2724551 C63,48.8203085 62.8951609,48.3901096 62.7074582,48 C62.1639463,49.1290977 60.9207135,49.9207348 59.4769007,49.9207348 Z" id="Shape" fill="#FBDDCA"></path>
                        <path d="M60.5278221,52 L48.4721779,52 C46.5575828,52 45,53.4489661 45,55.2297624 L45,55.7702376 C45,57.5512905 46.5575828,59 48.4721779,59 L60.5278221,59 C62.4425551,59 64,57.5511622 64,55.7702376 L64,55.2297624 C64,53.4488378 62.4425551,52 60.5278221,52 Z" id="Shape" fill="#FBDDCA"></path>
                        <path d="M60.5278221,55.9408891 L48.4721779,55.9408891 C47.0430256,55.9408891 45.8132097,55.1403598 45.2812781,54.0001272 C45.1005649,54.3875417 45,54.8138884 45,55.2617369 L45,55.7976284 C45,57.5635767 46.5575828,59 48.4721779,59 L60.5278221,59 C62.4425551,59 64,57.5634495 64,55.7976284 L64,55.2616097 C64,54.8137612 63.8994351,54.3874144 63.7187219,54 C63.1869282,55.1403598 61.9569744,55.9408891 60.5278221,55.9408891 Z" id="Shape" fill="#FBDDCA"></path>
                        <path d="M59.1821193,57 L48.8178807,57 C46.7125594,57 45,58.5700983 45,60.5 C45,62.4300301 46.7126994,64 48.8178807,64 L59.1821193,64 C61.2874406,64 63,62.4299017 63,60.5 C62.99986,58.5700983 61.2871607,57 59.1821193,57 Z" id="Shape" fill="#FBDDCA"></path>
                        <path d="M59.1822593,60.8989807 L48.8180206,60.8989807 C47.3298366,60.8989807 46.0387334,60.1252751 45.4091386,59 C45.1480905,59.466525 45,59.9931204 45,60.5505729 C45,62.4527152 46.7126994,64 48.8178807,64 L59.1821193,64 C61.2874406,64 63,62.4525887 63,60.5505729 C63,59.9931204 62.8519095,59.466525 62.5908614,59 C61.9614066,60.1252751 60.6703034,60.8989807 59.1822593,60.8989807 Z" id="Shape" fill="#FBDDCA"></path>
                        <path d="M56.2190896,62 L48.7807718,62 C46.6959137,62 45,63.5700695 45,65.5000642 C45,67.4300588 46.6960523,69 48.7807718,69 L56.2190896,69 C58.3039477,69 60,67.4299305 60,65.5000642 C60,63.5701978 58.3039477,62 56.2190896,62 Z" id="Shape" fill="#FBDDCA"></path>
                        <path d="M56.2190896,65.9005515 L48.7807718,65.9005515 C47.3066367,65.9005515 46.0275283,65.1261637 45.4044688,64 C45.1463739,64.4663783 45,64.9925875 45,65.5497875 C45,67.4523629 46.6960523,69 48.7807718,69 L56.2190896,69 C58.3039477,69 60,67.4522364 60,65.5497875 C60,64.9925875 59.8536261,64.4663783 59.5955312,64 C58.9723331,65.1261637 57.6933633,65.9005515 56.2190896,65.9005515 Z" id="Shape" fill="#FBDDCA"></path>
                    </g>
                </g>
            </g>
        </g>
    </g>
</svg>