<?xml version="1.0" encoding="UTF-8"?>
<svg width="165px" height="179px" viewBox="0 0 165 179" version="1.1" xmlns="http://www.w3.org/2000/svg" xmlns:xlink="http://www.w3.org/1999/xlink">
    <!-- Generator: Sketch 48.2 (47327) - http://www.bohemiancoding.com/sketch -->
    <title>Group 51 Copy</title>
    <desc>Created with Sketch.</desc>
    <defs></defs>
    <g id="Page-1" stroke="none" stroke-width="1" fill="none" fill-rule="evenodd">
        <g id="Group-51-Copy" fill-rule="nonzero">
            <path d="M163.109651,45.2420963 L84.359763,0.492161877 C83.2048818,-0.164053959 81.7947666,-0.164053959 80.6398855,0.492161877 L1.88999732,45.2420963 C0.719998977,45.9060036 0,47.1439685 0,48.4791248 L0,130.520788 C0,131.855944 0.719998977,133.093909 1.88999732,133.757816 L80.6398855,178.507751 C81.2175018,178.836033 81.8548837,179 82.5,179 C83.1451163,179 83.7824982,178.836033 84.3601145,178.507751 L163.110003,133.757816 C164.280001,133.093909 165,131.855944 165,130.520788 L165,48.4791248 C164.999648,47.1439685 164.279649,45.9060036 163.109651,45.2420963 Z" id="Shape" fill="#61A6F3"></path>
            <g id="Group-8" transform="translate(44.000000, 48.000000)">
                <g id="webpage">
                    <path d="M67,8 L8,8 L8,2.29337496 C8,1.02676645 9.00965058,0 10.2551451,0 L64.7448549,0 C65.9903494,0 67,1.02676645 67,2.29337496 L67,8 Z" id="Shape" fill="#546F7A"></path>
                    <path d="M64.7448549,70 L8,70 L8,8 L67,8 L67,67.7782994 C67,69.0053229 65.9903494,70 64.7448549,70 Z" id="Shape" fill="#E1E6E9"></path>
                    <path d="M59,22 L0,22 L0,16.2933223 C0,15.0267429 1.00965058,14 2.25514514,14 L56.7448549,14 C57.9903494,14 59,15.0267429 59,16.2933223 L59,22 Z" id="Shape" fill="#546F7A"></path>
                    <path d="M56.7448549,83 L2.25514514,83 C1.00965058,83 0,82.0053229 0,80.7782994 L0,21 L59,21 L59,80.7782994 C59,82.0053229 57.9903494,83 56.7448549,83 Z" id="Shape" fill="#EBF0F3"></path>
                    <ellipse id="Oval" fill="#FCD462" cx="14.5" cy="4" rx="2.5" ry="2"></ellipse>
                    <ellipse id="Oval" fill="#27A2DB" cx="22.5" cy="4" rx="2.5" ry="2"></ellipse>
                    <ellipse id="Oval" fill="#44C4A1" cx="30.5" cy="4" rx="2.5" ry="2"></ellipse>
                    <ellipse id="Oval" fill="#FCD462" cx="7.5" cy="17" rx="2.5" ry="2"></ellipse>
                    <ellipse id="Oval" fill="#27A2DB" cx="14.5" cy="17" rx="2.5" ry="2"></ellipse>
                    <ellipse id="Oval" fill="#44C4A1" cx="22.5" cy="17" rx="2.5" ry="2"></ellipse>
                    <rect id="Rectangle-path" fill="#E56353" x="7" y="28" width="45" height="15"></rect>
                    <g id="Group" transform="translate(7.000000, 50.000000)" fill="#D5D6DB">
                        <rect id="Rectangle-path" x="0.0878486056" y="0.142727273" width="44.7769721" height="3.40581818"></rect>
                        <rect id="Rectangle-path" x="0.0878486056" y="16.6163636" width="44.7769721" height="3.40581818"></rect>
                        <rect id="Rectangle-path" x="0.0878486056" y="8.08945455" width="44.7769721" height="3.40581818"></rect>
                        <rect id="Rectangle-path" x="0.0878486056" y="24.5632727" width="44.7769721" height="3.40581818"></rect>
                    </g>
                </g>
                <g id="title" transform="translate(38.000000, 56.000000)">
                    <g id="Group" transform="translate(2.000000, 23.000000)" fill="#FF6F52">
                        <polygon id="Shape" points="9.83870724 2.51688764 9.26314145 4.70074157 7.07430592 13 4.18259211 9.59305056 0.0416546053 10.9267191 2.39828289 1.99060674 2.90656579 0.0647808989 6.93407566 0.518977528"></polygon>
                        <polygon id="Shape" points="20.9588289 10.9267191 16.8170625 9.59305056 13.9261776 13 11.7365132 4.70074157 11.1609474 2.51776404 14.065648 0.518977528 18.0939178 0.0647808989 18.6022007 1.99060674"></polygon>
                    </g>
                    <path d="M24.0923118,13 C24.0923118,11.676338 25.3128036,10.1762476 24.923282,8.98188352 C24.5195291,7.74405154 22.6328727,7.24752281 21.8795847,6.21728614 C21.1187992,5.17661443 21.222306,3.23970316 20.1768942,2.48229816 C19.1418954,1.73242574 17.3270204,2.42390334 16.0835503,2.02198112 C14.8836071,1.63415658 13.8296564,0 12.4999653,0 C11.1702741,0 10.1163235,1.63415658 8.91658858,2.02198112 C7.6731184,2.42390334 5.8582434,1.73242574 4.82317527,2.48229816 C3.7777634,3.23963406 3.88120079,5.17661443 3.12048472,6.21728614 C2.36719671,7.24759191 0.48054033,7.74405154 0.0767873955,8.98181441 C-0.312803641,10.1761785 0.907688165,11.676338 0.907688165,13 C0.907688165,14.323662 -0.312803641,15.8237524 0.0767179745,17.0181165 C0.480470909,18.2559485 2.36712729,18.7524772 3.1204153,19.7827139 C3.88120079,20.8233856 3.7777634,22.7602968 4.82310585,23.5177018 C5.85810456,24.2675743 7.67297955,23.5760967 8.91644973,23.9780189 C10.1162541,24.3658434 11.1702047,26 12.4998959,26 C13.829587,26 14.8835377,24.3658434 16.0832726,23.9780189 C17.3267428,23.5760967 19.1416178,24.2675743 20.1766859,23.5177018 C21.2220978,22.7603659 21.1186604,20.8233856 21.8793764,19.7827139 C22.6326644,18.7524081 24.5193208,18.2559485 24.9230738,17.0181856 C25.3128036,15.8238215 24.0923118,14.3235929 24.0923118,13 Z" id="Shape" fill="#FCD577"></path>
                    <ellipse id="Oval" fill="#DCE8EF" cx="12" cy="13.5" rx="8" ry="8.5"></ellipse>
                    <g id="Group" transform="translate(8.000000, 9.000000)" fill="#415E72">
                        <rect id="Rectangle-path" x="1.66764706" y="0.0272727273" width="5.66424265" height="1.28021818"></rect>
                        <rect id="Rectangle-path" x="1.66764706" y="6.70930909" width="5.66424265" height="1.28021818"></rect>
                        <rect id="Rectangle-path" x="0.0546617647" y="3.36785455" width="8.88994853" height="1.28021818"></rect>
                    </g>
                </g>
            </g>
        </g>
    </g>
</svg>