<?xml version="1.0" encoding="UTF-8"?>
<svg width="271px" height="379px" viewBox="0 0 271 379" version="1.1" xmlns="http://www.w3.org/2000/svg" xmlns:xlink="http://www.w3.org/1999/xlink">
    <!-- Generator: Sketch 48.2 (47327) - http://www.bohemiancoding.com/sketch -->
    <title>Group 57</title>
    <desc>Created with Sketch.</desc>
    <defs>
        <polygon id="path-1" points="0 0 250 0 250 354 28.4179688 354 0 371.042969 0 354"></polygon>
        <filter x="-2.8%" y="-1.3%" width="105.6%" height="103.8%" filterUnits="objectBoundingBox" id="filter-2">
            <feOffset dx="0" dy="2" in="SourceAlpha" result="shadowOffsetOuter1"></feOffset>
            <feGaussianBlur stdDeviation="2" in="shadowOffsetOuter1" result="shadowBlurOuter1"></feGaussianBlur>
            <feColorMatrix values="0 0 0 0 0   0 0 0 0 0   0 0 0 0 0  0 0 0 0.124915082 0" type="matrix" in="shadowBlurOuter1"></feColorMatrix>
        </filter>
    </defs>
    <g id="Desktop-HD-Copy-13" stroke="none" stroke-width="1" fill="none" fill-rule="evenodd" transform="translate(-731.000000, -8641.000000)">
        <g id="Group-2-Copy-7" transform="translate(735.000000, 8643.000000)">
            <g id="Group-29">
                <g id="Group-57">
                    <rect id="Rectangle-11-Copy" fill-opacity="0.1" fill="#000000" transform="translate(146.708333, 187.782890) rotate(6.000000) translate(-146.708333, -187.782890) " x="44.208333" y="17.7828897" width="205" height="340"></rect>
                    <g id="Rectangle-8">
                        <use fill="black" fill-opacity="1" filter="url(#filter-2)" xlink:href="#path-1"></use>
                        <use fill="#FFFFFF" fill-rule="evenodd" xlink:href="#path-1"></use>
                    </g>
                    <path d="M21,14 L41,14 L41,16 L21,16 L21,14 Z M16.5,19.5 L16.5,39.5 L14.5,39.5 L14.5,19.5 L16.5,19.5 Z" id="Combined-Shape" fill="#0769CB"></path>
                    <path d="M216.5,314.5 L236.5,314.5 L236.5,316.5 L216.5,316.5 L216.5,314.5 Z M212,320 L212,340 L210,340 L210,320 L212,320 Z" id="Combined-Shape" fill="#0769CB" transform="translate(223.250000, 327.250000) scale(-1, -1) translate(-223.250000, -327.250000) "></path>
                </g>
            </g>
        </g>
    </g>
</svg>