<?xml version="1.0" encoding="UTF-8"?>
<svg width="1397px" height="100px" viewBox="0 0 1397 100" version="1.1" xmlns="http://www.w3.org/2000/svg" xmlns:xlink="http://www.w3.org/1999/xlink">
    <!-- Generator: Sketch 48.2 (47327) - http://www.bohemiancoding.com/sketch -->
    <title>BG Copy 3</title>
    <desc>Created with Sketch.</desc>
    <defs></defs>
    <g id="Desktop-HD-Copy-13" stroke="none" stroke-width="1" fill="none" fill-rule="evenodd" transform="translate(-43.000000, -9014.000000)" fill-opacity="0.1">
        <g id="BG-Copy-3" transform="translate(43.000000, 9014.000000)" fill="#FFFFFF">
            <polygon id="Rectangle-7" points="130.765625 0 515.992188 0 387.109375 100 0 100"></polygon>
            <polygon id="Rectangle-7-Copy" transform="translate(1138.996094, 50.000000) scale(1, -1) translate(-1138.996094, -50.000000) " points="1011.76562 0 1396.99219 0 1268.10938 100 881 100"></polygon>
            <polygon id="Rectangle-7-Copy-2" points="639.765625 0 1024.99219 0 896.109375 100 509 100"></polygon>
            <polygon id="Rectangle-7-Copy-4" points="978.910518 0 1396.99219 0 1257.11725 100 836.992188 100"></polygon>
            <polygon id="Rectangle-7" transform="translate(282.822266, 50.000000) scale(1, -1) translate(-282.822266, -50.000000) " points="308.222656 0 418.644531 100 147 100"></polygon>
            <polygon id="Rectangle-7-Copy-3" points="644.88357 1 752.984375 99.6940303 336 99.6940303 462.962053 1.07930725"></polygon>
        </g>
    </g>
</svg>