<?xml version="1.0" encoding="UTF-8"?>
<svg width="165px" height="179px" viewBox="0 0 165 179" version="1.1" xmlns="http://www.w3.org/2000/svg" xmlns:xlink="http://www.w3.org/1999/xlink">
    <!-- Generator: Sketch 48.2 (47327) - http://www.bohemiancoding.com/sketch -->
    <title>Group 48</title>
    <desc>Created with Sketch.</desc>
    <defs></defs>
    <g id="Desktop-HD-Copy-13" stroke="none" stroke-width="1" fill="none" fill-rule="evenodd" transform="translate(-1028.000000, -6070.000000)">
        <g id="Group-48" transform="translate(1028.000000, 6070.000000)" fill-rule="nonzero">
            <path d="M163.109651,45.2420963 L84.359763,0.492161877 C83.2048818,-0.164053959 81.7947666,-0.164053959 80.6398855,0.492161877 L1.88999732,45.2420963 C0.719998977,45.9060036 0,47.1439685 0,48.4791248 L0,130.520788 C0,131.855944 0.719998977,133.093909 1.88999732,133.757816 L80.6398855,178.507751 C81.2175018,178.836033 81.8548837,179 82.5,179 C83.1451163,179 83.7824982,178.836033 84.3601145,178.507751 L163.110003,133.757816 C164.280001,133.093909 165,131.855944 165,130.520788 L165,48.4791248 C164.999648,47.1439685 164.279649,45.9060036 163.109651,45.2420963 Z" id="Shape" fill="#FFBF00"></path>
            <g id="graph-2" transform="translate(39.000000, 57.000000)">
                <g id="Group" transform="translate(24.746835, 32.500000)" fill="#546F7A">
                    <path d="M5.70898734,3.55333333 L0.315253165,8.98408333 C-0.105443038,9.40766667 -0.105443038,10.0923333 0.315253165,10.5159167 C0.525063291,10.7271667 0.800506329,10.8333333 1.07594937,10.8333333 C1.35139241,10.8333333 1.62683544,10.7271667 1.83664557,10.5159167 L7.23037975,5.08516667 C7.65107595,4.66158333 7.65107595,3.97691667 7.23037975,3.55333333 C6.80968354,3.12975 6.12860759,3.13083333 5.70898734,3.55333333 Z" id="Shape"></path>
                    <path d="M15.81,3.55333333 C15.3893038,3.12975 14.7093038,3.12975 14.2886076,3.55333333 C13.8679114,3.97691667 13.8679114,4.66158333 14.2886076,5.08516667 L20.7712025,11.61225 C20.9810127,11.8235 21.2564557,11.9296667 21.5318987,11.9296667 C21.8073418,11.9296667 22.0827848,11.8235 22.2925949,11.61225 C22.7132911,11.1886667 22.7132911,10.504 22.2925949,10.0804167 L15.81,3.55333333 Z" id="Shape"></path>
                    <path d="M40.5708228,0.317416667 C40.1501266,-0.106166667 39.4701266,-0.106166667 39.0494304,0.317416667 L28.2899367,11.15075 C27.8692405,11.5743333 27.8692405,12.259 28.2899367,12.6825833 C28.4997468,12.8938333 28.7751899,13 29.0506329,13 C29.3260759,13 29.601519,12.8938333 29.8113291,12.6825833 L40.5708228,1.84925 C40.991519,1.42566667 40.991519,0.741 40.5708228,0.317416667 Z" id="Shape"></path>
                </g>
                <path d="M3.2278481,65 C2.6328481,65 2.15189873,64.51575 2.15189873,63.9166667 L2.15189873,1.08333333 C2.15189873,0.48425 2.6328481,0 3.2278481,0 C3.8228481,0 4.30379747,0.48425 4.30379747,1.08333333 L4.30379747,63.9166667 C4.30379747,64.51575 3.8228481,65 3.2278481,65 Z" id="Shape" stroke="#546F7A" stroke-width="2.16666667" fill="#546F7A"></path>
                <path d="M83.5833333,62.8333333 L1.41666667,62.8333333 C0.63325,62.8333333 0,62.3490833 0,61.75 C0,61.1509167 0.63325,60.6666667 1.41666667,60.6666667 L83.5833333,60.6666667 C84.36675,60.6666667 85,61.1509167 85,61.75 C85,62.3490833 84.36675,62.8333333 83.5833333,62.8333333 Z" id="Shape" stroke="#546F7A" stroke-width="2.16666667" fill="#546F7A"></path>
                <ellipse id="Oval" fill="#F8E71C" cx="22.6078481" cy="46.5703333" rx="5.37974684" ry="5.41666667"></ellipse>
                <ellipse id="Oval" fill="#44C4A1" cx="35.5063291" cy="33.5833333" rx="5.37974684" ry="5.41666667"></ellipse>
                <ellipse id="Oval" fill="#44C4A1" cx="68.8607595" cy="30.3333333" rx="5.37974684" ry="5.41666667"></ellipse>
                <ellipse id="Oval" fill="#F8E71C" cx="49.4936709" cy="47.6666667" rx="5.37974684" ry="5.41666667"></ellipse>
            </g>
        </g>
    </g>
</svg>