<?xml version="1.0" encoding="UTF-8"?>
<svg width="165px" height="179px" viewBox="0 0 165 179" version="1.1" xmlns="http://www.w3.org/2000/svg" xmlns:xlink="http://www.w3.org/1999/xlink">
    <!-- Generator: Sketch 48.2 (47327) - http://www.bohemiancoding.com/sketch -->
    <title>Group 49 Copy</title>
    <desc>Created with Sketch.</desc>
    <defs></defs>
    <g id="Page-1" stroke="none" stroke-width="1" fill="none" fill-rule="evenodd">
        <g id="Group-49-Copy">
            <path d="M163.109651,45.2420963 L84.359763,0.492161877 C83.2048818,-0.164053959 81.7947666,-0.164053959 80.6398855,0.492161877 L1.88999732,45.2420963 C0.719998977,45.9060036 0,47.1439685 0,48.4791248 L0,130.520788 C0,131.855944 0.719998977,133.093909 1.88999732,133.757816 L80.6398855,178.507751 C81.2175018,178.836033 81.8548837,179 82.5,179 C83.1451163,179 83.7824982,178.836033 84.3601145,178.507751 L163.110003,133.757816 C164.280001,133.093909 165,131.855944 165,130.520788 L165,48.4791248 C164.999648,47.1439685 164.279649,45.9060036 163.109651,45.2420963 Z" id="Shape" fill="#61A6F3" fill-rule="nonzero"></path>
            <g id="Group-9" transform="translate(45.000000, 50.000000)">
                <path d="M36.5,3.67816092 C16.3416066,3.67816092 0,19.9400022 0,40 C0,55.6885366 9.99534662,69.05393 23.9946697,74.1340548" id="Oval-2" stroke="#D9DDE3" stroke-width="2.75862069" stroke-linecap="round" stroke-linejoin="round"></path>
                <path d="M36.5,76.3218391 C56.6583934,76.3218391 73,60.0599978 73,40 C73,23.6476215 62.1408745,9.8191477 47.2071827,5.26602168" id="Path" stroke="#D9DDE3" stroke-width="2.75862069" stroke-linecap="round" stroke-linejoin="round"></path>
                <path d="M49.299745,2.57941398 L52.6363187,9.21998893 L44.319863,9.21998893 L47.6564367,2.57941398 C47.8844432,2.12562692 48.437146,1.94259558 48.8909331,2.17060203 C49.0676128,2.2593752 49.2109719,2.40273428 49.299745,2.57941398 Z" id="Triangle" fill="#D9DDE3" transform="translate(48.478091, 5.646252) rotate(-67.000000) translate(-48.478091, -5.646252) "></path>
                <path d="M24.2283638,71.1222936 L27.5649375,77.7628686 L19.2484818,77.7628686 L22.5850555,71.1222936 C22.813062,70.6685066 23.3657648,70.4854752 23.8195519,70.7134817 C23.9962316,70.8022548 24.1395906,70.9456139 24.2283638,71.1222936 Z" id="Triangle-Copy" fill="#D9DDE3" transform="translate(23.406710, 74.189132) rotate(111.000000) translate(-23.406710, -74.189132) "></path>
                <g id="notes" transform="translate(14.784810, 25.747126)" fill-rule="nonzero">
                    <rect id="XMLID_115_" fill="#44C4A1" x="0" y="5.88505747" width="41.5822785" height="23.5402299"></rect>
                    <polygon id="XMLID_114_" fill-opacity="0.7" fill="#44C4A1" points="38.6121157 5.88505747 1.48508137 5.88505747 1.48508137 2.94252874"></polygon>
                    <path d="M30.4441682,17.6551724 C30.4441682,22.9370115 26.1225814,27.2183908 20.7911392,27.2183908 C15.4596971,27.2183908 11.1381103,22.9370115 11.1381103,17.6551724 C11.1381103,12.3733333 15.4596971,8.09195402 20.7911392,8.09195402 C26.1225814,8.09195402 30.4441682,12.3733333 30.4441682,17.6551724" id="XMLID_79_" fill="#4D8157"></path>
                    <path d="M15.6631533,25.7471264 C12.9484245,24.0544368 11.1381103,21.0677701 11.1381103,17.6551724 C11.1381103,14.2425747 12.9484245,11.255908 15.6631533,9.56321839 L8.14938404,9.56321839 C8.16052215,9.6845977 8.16794756,9.80671264 8.16794756,9.93103448 C8.16794756,12.1658851 6.33906985,13.9770115 4.08397378,13.9770115 C3.9584844,13.9770115 3.83522265,13.9696552 3.71270344,13.9586207 L3.71270344,21.3517241 C3.83522265,21.3406897 3.9584844,21.3333333 4.08397378,21.3333333 C6.33906985,21.3333333 8.16794756,23.1444598 8.16794756,25.3793103 C8.16794756,25.5036322 8.16052215,25.6257471 8.14938404,25.7471264 L15.6631533,25.7471264 Z" id="XMLID_112_" fill="#EAEAD7"></path>
                    <path d="M37.4983047,13.9770115 C35.2424661,13.9770115 33.4143309,12.1658851 33.4143309,9.93103448 C33.4143309,9.80671264 33.4217563,9.6845977 33.4328944,9.56321839 L25.9191252,9.56321839 C28.633854,11.255908 30.4441682,14.2425747 30.4441682,17.6551724 C30.4441682,21.0677701 28.633854,24.0544368 25.9191252,25.7471264 L33.4328944,25.7471264 C33.4217563,25.6257471 33.4143309,25.5036322 33.4143309,25.3793103 C33.4143309,23.1444598 35.2424661,21.3333333 37.4983047,21.3333333 C37.6237941,21.3333333 37.7470558,21.3406897 37.869575,21.3517241 L37.869575,13.9586207 C37.7470558,13.9696552 37.6237941,13.9770115 37.4983047,13.9770115" id="XMLID_111_" fill="#EAEAD7"></path>
                    <path d="M4.08397378,11.7701149 C3.06001017,11.7701149 2.22762206,10.9454713 2.22762206,9.93103448 C2.22762206,8.9165977 3.06001017,8.09195402 4.08397378,8.09195402 C5.10793739,8.09195402 5.9403255,8.9165977 5.9403255,9.93103448 C5.9403255,10.9454713 5.10793739,11.7701149 4.08397378,11.7701149" id="XMLID_110_" fill="#EAEAD7"></path>
                    <path d="M37.4983047,11.7701149 C36.4743411,11.7701149 35.641953,10.9454713 35.641953,9.93103448 C35.641953,8.9165977 36.4743411,8.09195402 37.4983047,8.09195402 C38.5222683,8.09195402 39.3546564,8.9165977 39.3546564,9.93103448 C39.3546564,10.9454713 38.5222683,11.7701149 37.4983047,11.7701149" id="XMLID_109_" fill="#EAEAD7"></path>
                    <path d="M4.08397378,27.2183908 C3.06001017,27.2183908 2.22762206,26.3937471 2.22762206,25.3793103 C2.22762206,24.3648736 3.06001017,23.5402299 4.08397378,23.5402299 C5.10793739,23.5402299 5.9403255,24.3648736 5.9403255,25.3793103 C5.9403255,26.3937471 5.10793739,27.2183908 4.08397378,27.2183908" id="XMLID_108_" fill="#EAEAD7"></path>
                    <path d="M37.4983047,27.2183908 C36.4743411,27.2183908 35.641953,26.3937471 35.641953,25.3793103 C35.641953,24.3648736 36.4743411,23.5402299 37.4983047,23.5402299 C38.5222683,23.5402299 39.3546564,24.3648736 39.3546564,25.3793103 C39.3546564,26.3937471 38.5222683,27.2183908 37.4983047,27.2183908" id="XMLID_107_" fill="#EAEAD7"></path>
                    <polygon id="XMLID_106_" fill-opacity="0.3" fill="#44C4A1" points="3.71270344 0 3.71270344 3.11908046 38.6121157 5.88505747 40.8397378 5.88505747"></polygon>
                    <path d="M24.9256058,19.8804598 C25.4528097,19.7186207 25.8404159,19.236046 25.8404159,18.6622529 L25.8404159,18.0222529 C25.8404159,17.5315862 25.5552803,17.1078621 25.1439127,16.8930575 C24.8587771,14.4845977 23.2519191,13.5098851 20.66862,13.5098851 C20.5468434,13.5098851 20.4265518,13.5142989 20.3092303,13.5238621 C19.4308047,13.5930115 18.542726,13.4297011 17.8128085,12.941977 C17.5091094,12.7389425 17.2536754,12.5241379 17.0739806,12.2975632 C16.9915585,12.1945747 16.8274571,12.260046 16.8430504,12.3909885 C16.8690393,12.6146207 16.9069089,12.8765057 16.9648271,13.161931 C17.1779363,14.2249195 17.0502193,14.0697011 16.635139,15.0731034 C16.4056939,15.6277701 16.2579283,16.2434943 16.1888721,16.8952644 C15.7804747,17.1115402 15.4968241,17.5330575 15.4968241,18.0222529 L15.4968241,18.6622529 C15.4968241,19.236046 15.8851729,19.7186207 16.4116343,19.8804598 C16.7613709,21.1766437 17.4794078,22.2131494 18.7291038,22.7464828 L18.7291038,23.479908 C18.7291038,23.6674943 18.6214354,23.8381609 18.4521361,23.9212874 L15.9564568,25.1394943 C15.7403775,25.2557241 15.5621677,25.4153563 15.403264,25.5911724 C16.9418083,26.6181149 18.7959324,27.2183908 20.7911392,27.2183908 C22.712092,27.2183908 24.4979024,26.6556322 26.0015472,25.6971034 C25.8166546,25.4749425 25.5842394,25.2895632 25.3139546,25.1556782 L22.8791637,23.9227586 C22.7128345,23.8388966 22.6081363,23.6697011 22.6081363,23.4850575 L22.6081363,22.7464828 C23.8578323,22.2131494 24.5758691,21.1766437 24.9256058,19.8804598" id="XMLID_105_" fill="#EAEAD7"></path>
                </g>
            </g>
        </g>
    </g>
</svg>