<svg id="Layer_1" data-name="Layer 1" xmlns="http://www.w3.org/2000/svg" viewBox="0 0 163.22 191.36"><defs><style>.cls-1{fill:#fff;}</style></defs><title>core_p2</title><polygon class="cls-1" points="62.8 168.82 81.46 191.36 100.42 168.82 91.58 168.82 91.58 145.48 71.64 145.48 71.64 168.82 62.8 168.82"/><polygon class="cls-1" points="28.81 120.56 0 134.84 28.81 149.34 28.81 142.58 58.66 142.58 58.66 127.33 28.81 127.33 28.81 120.56"/><polygon class="cls-1" points="134.41 149.34 163.22 135.07 134.41 120.56 134.41 127.33 104.57 127.33 104.57 142.58 134.41 142.58 134.41 149.34"/><path class="cls-1" d="M116.48,27.71a12.82,12.82,0,1,0,25.62,0c0-5.49-5.14-11.78-9.81-13.74l1.66-1.22,4.31-4.37s1.81-5.82-3.32-1.16S120.48,4.88,120.14,6s5.05,7.35,5.05,7.35l1.35,1.39C121.18,16.32,116.48,21.72,116.48,27.71Zm12.92-1.34c-2.3-.65-3.87-1.56-3.87-3.32,0-1.59,1.33-2.84,3.63-3.22V18.1h2.11v1.59a8.9,8.9,0,0,1,3.11.6l-.62,2a8.14,8.14,0,0,0-3.09-.62c-1.4,0-1.84.51-1.84,1s.75,1,2.57,1.56c2.55.76,3.59,1.76,3.59,3.39s-1.35,3-3.82,3.35v1.85h-2.11V31.16a9.93,9.93,0,0,1-3.65-.78l.64-2.12a8.68,8.68,0,0,0,3.57.8c1.22,0,2.06-.4,2.06-1.12S131,26.82,129.4,26.36Z"/><path class="cls-1" d="M80.42,22.37a11.29,11.29,0,0,0,11.51-6.81,10.94,10.94,0,0,0-3.35-13A29.58,29.58,0,0,0,83.68,0H79.39a15.86,15.86,0,0,1-1.45.65A11.29,11.29,0,0,0,70.6,13.48,11.41,11.41,0,0,0,80.42,22.37Z"/><path class="cls-1" d="M133.59,44.21l-20.38-1.57-16-16.19a5.41,5.41,0,0,0-4.44-1.56q-4-.06-8-.07V26.1L83,29.64l-.27.73L84.37,59.1l-3,3.32,0,0,0,0-3-3.32L80,30.37l-.28-.73L78,26.1V24.81l-6.47,0H70.3q-.74,0-1.45.07a5.38,5.38,0,0,0-1.45.66,5.51,5.51,0,0,0-.88.72L50.5,42.5,30.12,44.07a5.39,5.39,0,0,0,.41,10.77l.42,0L53.33,53.1a5.39,5.39,0,0,0,3.42-1.58L67.4,40.75V127a18.72,18.72,0,0,0,.27,3.6c.49,2.45,2.36,3.67,4.46,4.62h3.3c3.83-1.33,5.07-4.12,5-8-.1-15.5,0-31,0-46.49v-2h2.25v2c0,15.44.08,30.88,0,46.33,0,4,1.14,6.82,5,8.23h3.3c3.83-1.38,5-4.27,4.94-8.13q-.1-41.12,0-82.24V40.43L107,51.66a5.39,5.39,0,0,0,3.42,1.58L132.76,55l.42,0a5.39,5.39,0,0,0,.41-10.77Z"/><path class="cls-1" d="M46.84,29.4V24.26H43.9a10,10,0,0,0-.38-1.18l2.38-1.73-3-4.16-2.38,1.73a9.64,9.64,0,0,0-1-.72l.91-2.8-4.89-1.59-.91,2.8-.62,0-.61,0-.91-2.8L27.56,15.4l.91,2.8a10,10,0,0,0-1,.72l-2.38-1.73-3,4.16,2.38,1.73a10.21,10.21,0,0,0-.39,1.18H21.12V29.4h2.94a10.19,10.19,0,0,0,.39,1.18l-2.38,1.73,3,4.16,2.38-1.73a10.56,10.56,0,0,0,1,.72l-.91,2.8,4.89,1.59.91-2.8.61,0,.62,0,.91,2.8,4.89-1.59-.91-2.8a10.51,10.51,0,0,0,1-.72l2.38,1.73,3-4.16-2.38-1.73a9.87,9.87,0,0,0,.38-1.17ZM34,29.92a3.09,3.09,0,1,1,3.09-3.09A3.09,3.09,0,0,1,34,29.92Z"/></svg>