<svg id="Layer_1" data-name="Layer 1" xmlns="http://www.w3.org/2000/svg" viewBox="0 0 138.07 156.35"><defs><style>.cls-1{fill:#fff;}.cls-2{fill:#ffcb33;}</style></defs><title>core_p4</title><path class="cls-1" d="M10.43,61.34V60.15h1.43v1.39q0,26.31,0,52.61a11.77,11.77,0,0,0,.17,2.3c.31,1.57,1.51,2.35,2.85,2.95H17c2.45-.85,3.25-2.63,3.23-5.13-.07-9.91,0-19.82,0-29.73v-1.3h1.44v1.28c0,9.88,0,19.75,0,29.63,0,2.54.73,4.36,3.2,5.26h2.11c2.45-.88,3.17-2.73,3.16-5.2q-.06-26.3,0-52.6V60.17h1.37v1.25q0,8.91,0,17.81a10.72,10.72,0,0,0,.09,1.47,2.91,2.91,0,0,0,3.3,2.66,2.9,2.9,0,0,0,2.85-3c0-4.92,0-9.84,0-14.76,0-2.35,0-4.71,0-7.06a9.34,9.34,0,0,0-9.51-9.68q-2.61,0-5.23,0v.82l-1.11,2.26-.18.47,1.08,18.38-1.89,2.12,0,0,0,0-1.89-2.12L20,52.34l-.18-.47-1.11-2.26v-.83l-4.95,0c-4.9,0-8.27,2.81-9.41,7.57a2.05,2.05,0,0,1-.17.37V81.23a3.68,3.68,0,0,0,2.22,2,3.1,3.1,0,0,0,4-2.84,14,14,0,0,0,0-1.48Q10.43,70.15,10.43,61.34Z"/><path class="cls-1" d="M20.19,47.23a7.21,7.21,0,0,0,7.36-4.35,7,7,0,0,0-2.14-8.33,18.78,18.78,0,0,0-3.13-1.62H19.54c-.31.14-.61.31-.93.41a7.22,7.22,0,0,0-4.69,8.21A7.3,7.3,0,0,0,20.19,47.23Z"/><polygon class="cls-1" points="96.33 122.73 96.33 89.64 41.73 89.64 41.73 122.73 0 122.73 0 156.35 138.07 156.35 138.07 122.73 96.33 122.73"/><path class="cls-1" d="M107.26,61.34V60.15h1.43v1.39q0,26.31,0,52.61a11.72,11.72,0,0,0,.18,2.3c.31,1.57,1.51,2.35,2.85,2.95h2.11c2.45-.85,3.25-2.63,3.23-5.13-.07-9.91,0-19.82,0-29.73v-1.3h1.44v1.28c0,9.88,0,19.75,0,29.63,0,2.54.73,4.36,3.2,5.26h2.11c2.45-.88,3.17-2.73,3.16-5.2q-.06-26.3,0-52.6V60.17h1.37v1.25q0,8.91,0,17.81a10.82,10.82,0,0,0,.09,1.47,3.09,3.09,0,0,0,6.14-.38c0-4.92,0-9.84,0-14.76,0-2.35,0-4.71,0-7.06A9.34,9.34,0,0,0,125,48.84q-2.61,0-5.23,0v.82l-1.11,2.26-.18.47,1.08,18.38-1.89,2.12,0,0,0,0-1.89-2.12,1.08-18.38-.17-.47-1.11-2.26v-.83l-4.95,0c-4.91,0-8.27,2.81-9.41,7.57a2.06,2.06,0,0,1-.17.37V81.23a3.68,3.68,0,0,0,2.23,2,3.1,3.1,0,0,0,4-2.84,14.46,14.46,0,0,0,0-1.48Q107.27,70.15,107.26,61.34Z"/><path class="cls-1" d="M117,47.23a7.22,7.22,0,0,0,7.36-4.35,7,7,0,0,0-2.14-8.33,18.74,18.74,0,0,0-3.13-1.62h-2.74c-.31.14-.61.31-.93.41a7.22,7.22,0,0,0-4.69,8.21A7.3,7.3,0,0,0,117,47.23Z"/><path class="cls-1" d="M58.56,28.42V27.23H60v1.39q0,26.31,0,52.61a11.77,11.77,0,0,0,.17,2.3c.31,1.57,1.51,2.35,2.85,2.95h2.11c2.45-.85,3.24-2.63,3.23-5.14-.07-9.91,0-19.82,0-29.73v-1.3h1.44v1.28c0,9.88,0,19.75,0,29.63,0,2.54.73,4.36,3.2,5.26H75c2.45-.88,3.17-2.73,3.16-5.2q-.06-26.3,0-52.6V27.25h1.37v1.26q0,8.91,0,17.81a10.73,10.73,0,0,0,.09,1.47,3.09,3.09,0,0,0,6.14-.38c0-4.92,0-9.84,0-14.76,0-2.35,0-4.71,0-7.06a9.34,9.34,0,0,0-9.51-9.68l-5.22,0v.82L69.95,19l-.18.47L70.85,37.8,69,39.92l0,0,0,0L67,37.8l1.08-18.38L67.91,19l-1.11-2.26v-.83l-4.95,0c-4.9,0-8.27,2.81-9.41,7.57a2,2,0,0,1-.17.37V48.31a3.68,3.68,0,0,0,2.23,2,3.1,3.1,0,0,0,4-2.84,14,14,0,0,0,0-1.48Q58.56,37.23,58.56,28.42Z"/><path class="cls-1" d="M68.32,14.31A7.21,7.21,0,0,0,75.68,10a7,7,0,0,0-2.14-8.33A18.74,18.74,0,0,0,70.4,0H67.66c-.31.14-.61.31-.93.41A7.22,7.22,0,0,0,62,8.62,7.3,7.3,0,0,0,68.32,14.31Z"/><path class="cls-2" d="M72.27,120.85c-3.85-1.45-5.43-2.41-5.43-3.89,0-1.27,1-2.53,3.89-2.53a15,15,0,0,1,6.5,1.53l1.31-5.1a16.45,16.45,0,0,0-6.55-1.5v-4H67.58v4.3c-4.84.94-7.63,4.07-7.63,8,0,4.39,3.29,6.64,8.13,8.26,3.34,1.14,4.78,2.23,4.78,3.94s-1.75,2.8-4.33,2.8a16,16,0,0,1-7.49-2L59.68,136A18.29,18.29,0,0,0,67.35,138v4.29h4.43v-4.62c5.2-.9,8-4.33,8-8.35S77.64,122.74,72.27,120.85Z"/></svg>