<?xml version="1.0" encoding="UTF-8"?>
<svg width="198px" height="215px" viewBox="0 0 198 215" version="1.1" xmlns="http://www.w3.org/2000/svg" xmlns:xlink="http://www.w3.org/1999/xlink">
    <!-- Generator: Sketch 49 (51002) - http://www.bohemiancoding.com/sketch -->
    <title>Group 23</title>
    <desc>Created with Sketch.</desc>
    <defs>
        <path d="M25.8675154,73.2209059 C21.9961672,73.2209059 18.4680142,72.3058737 15.2829504,70.4757818 C12.0978867,68.6456899 9.37038684,66.0941578 7.10036903,62.8211089 C4.83035122,59.54806 3.07947228,55.6415763 1.84767967,51.1015407 C0.615887065,46.5615051 0,41.599215 0,36.2145216 C0,31.2521571 0.615887065,26.5714154 1.84767967,22.1721561 C3.07947228,17.7728968 4.83035122,13.9280018 7.10036903,10.6373558 C9.37038684,7.34670987 12.0978867,4.7511858 15.2829504,2.85070578 C18.4680142,0.950225758 21.9961672,0 25.8675154,0 C29.7388636,0 33.2582183,0.950225758 36.425685,2.85070578 C39.5931517,4.7511858 42.3118532,7.34670987 44.581871,10.6373558 C46.8518888,13.9280018 48.6027677,17.7728968 49.8345603,22.1721561 C51.0663529,26.5714154 51.68224,31.2521571 51.68224,36.2145216 C51.68224,41.599215 51.0663529,46.5615051 49.8345603,51.1015407 C48.6027677,55.6415763 46.8518888,59.54806 44.581871,62.8211089 C42.3118532,66.0941578 39.5931517,68.6456899 36.425685,70.4757818 C33.2582183,72.3058737 29.7388636,73.2209059 25.8675154,73.2209059 Z M25.8675154,69.7367099 C28.2255184,69.7367099 30.2843409,68.8216777 32.0440446,66.9915859 C33.8037483,65.161494 35.2642805,62.6979457 36.425685,59.6008672 C37.5870894,56.5037886 38.4581297,52.940442 39.038832,48.9107205 C39.6195342,44.880999 39.9098809,40.648975 39.9098809,36.2145216 C39.9098809,31.7800682 39.6195342,27.5744394 39.038832,23.597509 C38.4581297,19.6205785 37.5870894,16.1452158 36.425685,13.1713165 C35.2642805,10.1974172 33.8037483,7.83065122 32.0440446,6.0709475 C30.2843409,4.31124377 28.2255184,3.43140511 25.8675154,3.43140511 C23.4743184,3.43140511 21.3978991,4.31124377 19.6381954,6.0709475 C17.8784917,7.83065122 16.4179595,10.1974172 15.256555,13.1713165 C14.0951506,16.1452158 13.2329087,19.6205785 12.6698035,23.597509 C12.1066983,27.5744394 11.8251499,31.7800682 11.8251499,36.2145216 C11.8251499,40.648975 12.1066983,44.880999 12.6698035,48.9107205 C13.2329087,52.940442 14.0951506,56.5037886 15.256555,59.6008672 C16.4179595,62.6979457 17.8784917,65.161494 19.6381954,66.9915859 C21.3978991,68.8216777 23.4743184,69.7367099 25.8675154,69.7367099 Z" id="path-1"></path>
        <filter x="-9.7%" y="-6.8%" width="131.0%" height="121.9%" filterUnits="objectBoundingBox" id="filter-2">
            <feOffset dx="2" dy="2" in="SourceAlpha" result="shadowOffsetOuter1"></feOffset>
            <feColorMatrix values="0 0 0 0 0.988235294   0 0 0 0 0.776470588   0 0 0 0 0.176470588  0 0 0 1 0" type="matrix" in="shadowOffsetOuter1" result="shadowMatrixOuter1"></feColorMatrix>
            <feOffset dx="2" dy="2" in="SourceAlpha" result="shadowOffsetOuter2"></feOffset>
            <feGaussianBlur stdDeviation="2" in="shadowOffsetOuter2" result="shadowBlurOuter2"></feGaussianBlur>
            <feColorMatrix values="0 0 0 0 0   0 0 0 0 0   0 0 0 0 0  0 0 0 0.05 0" type="matrix" in="shadowBlurOuter2" result="shadowMatrixOuter2"></feColorMatrix>
            <feMerge>
                <feMergeNode in="shadowMatrixOuter1"></feMergeNode>
                <feMergeNode in="shadowMatrixOuter2"></feMergeNode>
            </feMerge>
        </filter>
    </defs>
    <g id="Page-2" stroke="none" stroke-width="1" fill="none" fill-rule="evenodd">
        <g id="20180310" transform="translate(-279.000000, -7634.000000)">
            <g id="Group-23" transform="translate(279.000000, 7634.000000)">
                <g id="Group-48-Copy" fill="#0769D5" fill-rule="nonzero">
                    <path d="M195.731581,54.3410654 L101.231716,0.591144154 C99.8458582,-0.197048051 98.15372,-0.197048051 96.7678625,0.591144154 L2.26799678,54.3410654 C0.863998773,55.1384959 0,56.6254371 0,58.2291164 L0,156.770779 C0,158.374458 0.863998773,159.861399 2.26799678,160.65883 L96.7678625,214.408751 C97.4610022,214.803057 98.2258605,215 99,215 C99.7741395,215 100.538998,214.803057 101.232137,214.408751 L195.732003,160.65883 C197.136001,159.861399 198,158.374458 198,156.770779 L198,58.2291164 C197.999578,56.6254371 197.135579,55.1384959 195.731581,54.3410654 Z" id="Shape"></path>
                </g>
                <g id="rich" transform="translate(95.000000, 92.000000)" fill-rule="nonzero">
                    <path d="M36.2317241,21.1183898 C34.8182069,21.1183898 33.4057931,20.5807627 32.329931,19.5077119 C31.8995862,19.0769492 31.8995862,18.3795763 32.329931,17.9499153 C32.7613793,17.5191525 33.4598621,17.5191525 33.8902069,17.9499153 C35.1801379,19.2377966 37.28,19.2377966 38.5721379,17.9499153 C39.0035862,17.5191525 39.702069,17.5191525 40.1324138,17.9499153 C40.5638621,18.3795763 40.5638621,19.0769492 40.1324138,19.5077119 C39.0576552,20.5807627 37.6452414,21.1183898 36.2317241,21.1183898" id="XMLID_121_" fill="#4C4031"></path>
                    <path d="M43.072,44.8268644 L43.072,44.824661 L43.072,40.4189831 C43.072,39.4858475 45.9597241,37.844322 49.9486897,37.2405932 C48.5583448,34.2527966 46.4617931,31.5492373 43.7075862,29.4405932 L35.7097931,24.0114407 C35.2915862,23.6919492 34.8446897,23.3977966 34.3790345,23.1355932 C33.7666207,21.269322 33.3451034,19.344661 33.1354483,17.3935593 L32.5638621,12.0911017 C32.5131034,11.6217797 32.5131034,11.1491525 32.5693793,10.6809322 C32.64,10.0871186 32.7183448,9.23550847 32.7514483,9.13855932 C32.8209655,8.93805085 32.9158621,8.71110169 33.0085517,8.48855932 C33.4631724,7.59177966 34.0126897,6.65313559 34.5776552,5.95686441 C34.7773793,5.73432203 34.9726897,5.50847458 35.2066207,5.31127119 C36.4888276,4.22720339 36.1588966,2.19016949 34.5644138,1.66355932 C33.696,1.37601695 32.7536552,1.16559322 31.7914483,1.11381356 C31.6998621,1.10830508 31.6071724,1.11601695 31.5155862,1.11381356 C31.296,1.10940678 31.0753103,1.10059322 30.8546207,1.11491525 C29.5635862,1.1920339 28.2648276,1.59966102 27.0830345,2.54271186 C26.6868966,2.86 26.2146207,3.01754237 25.7412414,3.02194915 C25.2612414,3.02084746 24.7801379,2.86110169 24.3784828,2.54050847 C22.9108966,1.37050847 21.2634483,1.02347458 19.6722759,1.11381356 C18.710069,1.16559322 17.7688276,1.37601695 16.9004138,1.66355932 C15.305931,2.19016949 14.976,4.22720339 16.2582069,5.31127119 C16.3928276,5.42474576 16.5362759,5.57127119 16.6808276,5.72220339 C16.726069,5.76737288 16.7702069,5.81254237 16.8132414,5.85771186 C17.001931,6.06372881 17.193931,6.29508475 17.3881379,6.54186441 C18.0336552,7.42652542 18.4728276,8.37838983 18.7354483,9.13855932 C18.8093793,9.35228814 18.8844138,10.5322034 19.0002759,11.1777966 C19.0742069,11.5887288 19.1227586,12.0007627 19.1227586,12.4183051 L19.1227586,16.2610169 C19.1227586,18.5051695 18.8413793,20.7372034 18.3095172,22.9130508 C17.7853793,23.1708475 17.2777931,23.4627966 16.8121379,23.8274576 L9.03503448,29.484661 C1.38482759,35.4888983 -1.19062069,46.0816949 3.21103448,54.7465254 C5.04606897,58.3611864 7.58951724,61.4635593 10.5765517,61.6651695 C10.8524138,61.685 11.1293793,61.6949153 11.4107586,61.6949153 L33.142069,61.6949153 C32.8673103,61.2377119 32.6433103,60.7000847 32.4656552,60.1283051 C32.5804138,60.1238983 32.6951724,60.125 32.8088276,60.1161864 C40.0066207,59.6314407 44.6565517,55.1618644 43.0731034,48.8072881 L43.0731034,44.8268644 L43.072,44.8268644 Z" id="XMLID_120_" fill="#C7B6A1"></path>
                    <path d="M53.0030345,46.9233898 C47.5177931,46.9233898 43.072,45.9847458 43.072,44.8257627 L43.072,49.2336441 C43.0753103,50.3915254 47.52,51.3301695 53.0030345,51.3301695 C58.486069,51.3301695 62.9307586,50.3915254 62.934069,49.2336441 L62.934069,44.8257627 C62.934069,45.9847458 58.4893793,46.9233898 53.0030345,46.9233898" id="XMLID_119_" fill="#D19D18"></path>
                    <path d="M62.934069,40.4189831 C62.934069,41.5779661 58.4882759,42.5166102 53.0030345,42.5166102 C47.5177931,42.5166102 43.072,41.5779661 43.072,40.4189831 C43.072,39.2611017 47.5177931,37.0081356 53.0030345,37.0081356 C58.4893793,37.0081356 62.934069,39.2611017 62.934069,40.4189831" id="XMLID_116_" fill="#FCC62D"></path>
                    <path d="M53.0030345,42.5166102 C47.5177931,42.5166102 43.072,41.5779661 43.072,40.4189831 L43.072,44.8268644 C43.0753103,45.9847458 47.52,46.9233898 53.0030345,46.9233898 C58.486069,46.9233898 62.9307586,45.9847458 62.934069,44.8268644 L62.934069,40.4189831 C62.934069,41.5779661 58.4893793,42.5166102 53.0030345,42.5166102" id="XMLID_115_" fill="#E4AF18"></path>
                    <path d="M33.1409655,19.8305085 L18.7961379,19.8305085 C18.1870345,19.8305085 17.6926897,19.3369492 17.6926897,18.7288136 C17.6926897,18.120678 18.1870345,17.6271186 18.7961379,17.6271186 L33.1409655,17.6271186 C33.750069,17.6271186 34.2444138,18.120678 34.2444138,18.7288136 C34.2444138,19.3358475 33.750069,19.8305085 33.1409655,19.8305085" id="XMLID_112_" fill="#6B5B46"></path>
                    <path d="M33.1409655,16.5254237 L18.7961379,16.5254237 C18.1870345,16.5254237 17.6926897,16.0318644 17.6926897,15.4237288 C17.6926897,14.8155932 18.1870345,14.3220339 18.7961379,14.3220339 L33.1409655,14.3220339 C33.750069,14.3220339 34.2444138,14.8155932 34.2444138,15.4237288 C34.2444138,16.0318644 33.750069,16.5254237 33.1409655,16.5254237" id="XMLID_111_" fill="#6B5B46"></path>
                    <path d="M33.1409655,13.220339 L18.7961379,13.220339 C18.1870345,13.220339 17.6926897,12.7267797 17.6926897,12.1186441 C17.6926897,11.5105085 18.1870345,11.0169492 18.7961379,11.0169492 L33.1409655,11.0169492 C33.750069,11.0169492 34.2444138,11.5105085 34.2444138,12.1186441 C34.2444138,12.7267797 33.750069,13.220339 33.1409655,13.220339" id="XMLID_110_" fill="#6B5B46"></path>
                    <path d="M53.0030345,60.1437288 C50.7817931,60.1437288 48.7382069,59.9883898 47.0841379,59.7283898 C46.5776552,61.2454237 45.6110345,62.5476271 44.3508966,63.4807627 C46.0535172,64.1186441 49.2877241,64.5505085 53.0030345,64.5505085 C58.486069,64.5505085 62.9307586,63.6118644 62.934069,62.4539831 L62.934069,58.0461017 C62.934069,59.2050847 58.4893793,60.1437288 53.0030345,60.1437288" id="XMLID_109_" fill="#E4AF18"></path>
                    <path d="M53.0030345,51.3301695 C47.5177931,51.3301695 43.072,50.3915254 43.072,49.2325424 L43.072,50.3276271 C45.1089655,51.2960169 46.6493793,53.1226271 47.2286897,55.3436441 C48.8562759,55.5904237 50.8468966,55.7369492 53.0030345,55.7369492 C58.486069,55.7369492 62.9307586,54.7983051 62.934069,53.6404237 L62.934069,49.2325424 C62.934069,50.3915254 58.4893793,51.3301695 53.0030345,51.3301695" id="XMLID_108_" fill="#E4AF18"></path>
                    <path d="M53.0030345,55.7369492 C50.8468966,55.7369492 48.8562759,55.5904237 47.2286897,55.3436441 C47.3908966,55.9661017 47.4857931,56.615 47.4857931,57.2870339 C47.4857931,58.1408475 47.3412414,58.9605085 47.0841379,59.7283898 C48.7382069,59.9883898 50.7817931,60.1437288 53.0030345,60.1437288 C58.486069,60.1437288 62.9307586,59.2050847 62.934069,58.0472034 L62.934069,53.639322 C62.934069,54.7983051 58.4893793,55.7369492 53.0030345,55.7369492" id="XMLID_107_" fill="#D19D18"></path>
                    <path d="M47.4857931,57.2881356 C47.4857931,61.5472881 44.0275862,65 39.7616552,65 C35.4957241,65 32.0375172,61.5472881 32.0375172,57.2881356 C32.0375172,53.0289831 35.4957241,49.5762712 39.7616552,49.5762712 C44.0286897,49.5762712 47.4857931,53.0278814 47.4857931,57.2881356" id="XMLID_106_" fill="#FCC62D"></path>
                    <path d="M8.86510345,46.2711864 C8.256,46.2711864 7.76165517,45.7776271 7.76165517,45.1694915 C7.76165517,37.6019492 16.1357241,28.6440678 23.209931,28.6440678 C23.8190345,28.6440678 24.3133793,29.1376271 24.3133793,29.7457627 C24.3133793,30.3538983 23.8190345,30.8474576 23.209931,30.8474576 C17.3936552,30.8474576 9.96855172,38.8788136 9.96855172,45.1694915 C9.96855172,45.7765254 9.4742069,46.2711864 8.86510345,46.2711864" id="XMLID_105_" fill="#DBCCBA"></path>
                </g>
                <g id="Group-7" transform="translate(50.000000, 72.000000)">
                    <g id="0">
                        <use fill="black" fill-opacity="1" filter="url(#filter-2)" xlink:href="#path-1"></use>
                        <use fill="#FFFFFC" fill-rule="evenodd" xlink:href="#path-1"></use>
                    </g>
                    <path d="M55.9222222,1.93333333 C56.4333359,1.93333333 56.8814796,2.05185067 57.2666667,2.28888889 C57.6518538,2.52592711 57.9759246,2.83518328 58.2388889,3.21666667 C58.5018532,3.59815006 58.6981475,4.03333089 58.8277778,4.52222222 C58.9574081,5.01111356 59.0222222,5.50370122 59.0222222,6 C59.0222222,6.48889133 58.9555562,6.96851617 58.8222222,7.43888889 C58.6888882,7.90926161 58.4907421,8.32777594 58.2277778,8.69444444 C57.9648135,9.06111294 57.6407427,9.35555444 57.2555556,9.57777778 C56.8703684,9.80000111 56.4222248,9.91111111 55.9111111,9.91111111 C55.4074049,9.91111111 54.9629649,9.80000111 54.5777778,9.57777778 C54.1925907,9.35555444 53.8685198,9.06111294 53.6055556,8.69444444 C53.3425913,8.32777594 53.1425933,7.90926161 53.0055556,7.43888889 C52.8685178,6.96851617 52.8,6.48889133 52.8,6 C52.8,5.50370122 52.8685178,5.01111356 53.0055556,4.52222222 C53.1425933,4.03333089 53.3425913,3.59815006 53.6055556,3.21666667 C53.8685198,2.83518328 54.1944425,2.52592711 54.5833333,2.28888889 C54.9722242,2.05185067 55.418516,1.93333333 55.9222222,1.93333333 Z M55.9444444,2.48888889 C55.7296286,2.48888889 55.5462971,2.55370306 55.3944444,2.68333333 C55.2425918,2.81296361 55.1129635,2.97962861 55.0055556,3.18333333 C54.8981476,3.38703806 54.8129633,3.61851722 54.75,3.87777778 C54.6870367,4.13703833 54.6388891,4.396295 54.6055556,4.65555556 C54.5722221,4.91481611 54.5500001,5.16296178 54.5388889,5.4 C54.5277777,5.63703822 54.5222222,5.83703622 54.5222222,6 C54.5222222,6.15555633 54.5259259,6.34444333 54.5333333,6.56666667 C54.5407408,6.78889 54.5611109,7.02407283 54.5944444,7.27222222 C54.6277779,7.52037161 54.6740738,7.76851728 54.7333333,8.01666667 C54.7925929,8.26481606 54.8740736,8.48888789 54.9777778,8.68888889 C55.081482,8.88888989 55.2092585,9.04999939 55.3611111,9.17222222 C55.5129637,9.29444506 55.6962952,9.35555556 55.9111111,9.35555556 C56.1185196,9.35555556 56.2981474,9.29444506 56.45,9.17222222 C56.6018526,9.04999939 56.7296291,8.89074172 56.8333333,8.69444444 C56.9370376,8.49814717 57.0203701,8.277779 57.0833333,8.03333333 C57.1462966,7.78888767 57.1944443,7.54259383 57.2277778,7.29444444 C57.2611113,7.04629506 57.2833333,6.80926039 57.2944444,6.58333333 C57.3055556,6.35740628 57.3111111,6.16296378 57.3111111,6 C57.3111111,5.84444367 57.3055556,5.65000117 57.2944444,5.41666667 C57.2833333,5.18333217 57.2611113,4.93703833 57.2277778,4.67777778 C57.1944443,4.41851722 57.1462966,4.15740872 57.0833333,3.89444444 C57.0203701,3.63148017 56.9388894,3.39629733 56.8388889,3.18888889 C56.7388884,2.98148044 56.6166674,2.81296361 56.4722222,2.68333333 C56.3277771,2.55370306 56.1518529,2.48888889 55.9444444,2.48888889 Z M66.7777778,9.35555556 C67.2888914,9.35555556 67.7370351,9.47407289 68.1222222,9.71111111 C68.5074093,9.94814933 68.8296283,10.2592573 69.0888889,10.6444444 C69.3481494,11.0296316 69.5444438,11.4648124 69.6777778,11.95 C69.8111118,12.4351876 69.8777778,12.9259234 69.8777778,13.4222222 C69.8777778,13.918521 69.8111118,14.4018495 69.6777778,14.8722222 C69.5444438,15.3425949 69.3462976,15.7611093 69.0833333,16.1277778 C68.8203691,16.4944463 68.4944464,16.7888878 68.1055556,17.0111111 C67.7166647,17.2333344 67.2666692,17.3444444 66.7555556,17.3444444 C66.2518493,17.3444444 65.8074093,17.2333344 65.4222222,17.0111111 C65.0370351,16.7888878 64.7148161,16.4944463 64.4555556,16.1277778 C64.196295,15.7611093 64.0000007,15.3425949 63.8666667,14.8722222 C63.7333327,14.4018495 63.6666667,13.918521 63.6666667,13.4222222 C63.6666667,12.9259234 63.7351845,12.4351876 63.8722222,11.95 C64.0092599,11.4648124 64.2092579,11.0296316 64.4722222,10.6444444 C64.7351865,10.2592573 65.0592573,9.94814933 65.4444444,9.71111111 C65.8296316,9.47407289 66.2740716,9.35555556 66.7777778,9.35555556 Z M66.8,9.91111111 C66.5851841,9.91111111 66.4018526,9.97592528 66.25,10.1055556 C66.0981474,10.2351858 65.9703709,10.4018508 65.8666667,10.6055556 C65.7629624,10.8092603 65.6777781,11.0407394 65.6111111,11.3 C65.5444441,11.5592606 65.4925928,11.8203691 65.4555556,12.0833333 C65.4185183,12.3462976 65.3944445,12.5944433 65.3833333,12.8277778 C65.3722222,13.0611123 65.3666667,13.2592584 65.3666667,13.4222222 C65.3666667,13.5777786 65.3722222,13.7685174 65.3833333,13.9944444 C65.3944445,14.2203715 65.4148147,14.4574062 65.4444444,14.7055556 C65.4740742,14.9537049 65.5203701,15.2018506 65.5833333,15.45 C65.6462966,15.6981494 65.7296291,15.9222212 65.8333333,16.1222222 C65.9370376,16.3222232 66.0629622,16.4833327 66.2111111,16.6055556 C66.35926,16.7277784 66.5407397,16.7888889 66.7555556,16.7888889 C66.9703714,16.7888889 67.1537029,16.7277784 67.3055556,16.6055556 C67.4574082,16.4833327 67.5851847,16.3240751 67.6888889,16.1277778 C67.7925931,15.9314805 67.8759256,15.7092605 67.9388889,15.4611111 C68.0018522,15.2129617 68.0499998,14.9648161 68.0833333,14.7166667 C68.1166668,14.4685173 68.1388888,14.2296308 68.15,14 C68.1611112,13.7703692 68.1666667,13.5777786 68.1666667,13.4222222 C68.1666667,13.2666659 68.1611112,13.0722234 68.15,12.8388889 C68.1388888,12.6055544 68.1166668,12.3592606 68.0833333,12.1 C68.0499998,11.8407394 68.0018522,11.5814828 67.9388889,11.3222222 C67.8759256,11.0629617 67.7944449,10.8277788 67.6944444,10.6166667 C67.5944439,10.4055545 67.4703711,10.2351858 67.3222222,10.1055556 C67.1740733,9.97592528 67.000001,9.91111111 66.8,9.91111111 Z M56.5555556,17.3444444 L55.5888889,17.3444444 L66.1555556,1.93333333 L67.1222222,1.93333333 L56.5555556,17.3444444 Z" id="%" fill="#FFFFFF"></path>
                </g>
            </g>
        </g>
    </g>
</svg>