<svg id="Layer_1" data-name="Layer 1" xmlns="http://www.w3.org/2000/svg" viewBox="0 0 158.35 145.09"><defs><style>.cls-1{fill:#fff;}</style></defs><title>core_p3</title><path class="cls-1" d="M141.48,134.69c-9.32,0-16.87-3-16.87-6.75v6.75c0,3.73,7.55,6.75,16.87,6.75s16.87-3,16.87-6.75v-6.75C158.35,131.66,150.79,134.69,141.48,134.69Z"/><path class="cls-1" d="M10.56,47.68v-2H13V48q0,44.14,0,88.27a19.88,19.88,0,0,0,.29,3.86c.53,2.63,2.53,3.94,4.78,5h3.54c4.11-1.43,5.45-4.42,5.42-8.62-.11-16.63,0-33.25,0-49.88V84.41h2.41v2.14c0,16.57.08,33.14-.06,49.71,0,4.26,1.22,7.32,5.37,8.83h3.54c4.11-1.48,5.31-4.59,5.3-8.72q-.1-44.12,0-88.24V45.72c.39-.92.9-5.91,1.22-7.42l1.91,1,1.84,1L74.56,54.91A18,18,0,0,0,76.79,56a4.87,4.87,0,0,0,6.59-2.66,4.86,4.86,0,0,0-2.13-6.65c-7.19-4.05-14.41-8-21.62-12.07-3.45-1.93-6.89-3.86-10.35-5.77a16.84,16.84,0,0,0-9.89-2.14q-3.93-.05-7.85-.07V28l-1.87,3.8-.29.78,1.81,30.83L28,67l0,0,0,0-3.18-3.56,1.81-30.83-.29-.78L24.38,28V26.61l-8.3.05C7.85,26.75,2.2,31.37.29,39.37A3.31,3.31,0,0,1,0,40V81c.9,1.52,1.85,3,3.73,3.43a5.2,5.2,0,0,0,6.78-4.77,24.17,24.17,0,0,0,.05-2.47Q10.57,62.45,10.56,47.68Z"/><path class="cls-1" d="M29.2,24a12.1,12.1,0,0,0,12.35-7.3,11.73,11.73,0,0,0-3.6-14A31.33,31.33,0,0,0,32.7,0H28.1a17.05,17.05,0,0,1-1.56.7,12.11,12.11,0,0,0-7.87,13.76A12.24,12.24,0,0,0,29.2,24Z"/><path class="cls-1" d="M67.15,109.39c-9.32,0-16.87-3-16.87-6.74v6.74c0,3.73,7.55,6.75,16.87,6.75s16.87-3,16.87-6.75v-6.74C84,106.37,76.47,109.39,67.15,109.39Z"/><path class="cls-1" d="M67.15,118.17c-9.32,0-16.87-3-16.87-6.75v6.75c0,3.73,7.55,6.75,16.87,6.75S84,121.9,84,118.17v-6.75C84,115.15,76.47,118.17,67.15,118.17Z"/><path class="cls-1" d="M67.15,127c-9.32,0-16.87-3-16.87-6.75V127c0,3.73,7.55,6.75,16.87,6.75S84,130.68,84,127v-6.75C84,123.93,76.47,127,67.15,127Z"/><path class="cls-1" d="M67.15,135.73c-9.32,0-16.87-3-16.87-6.75v6.75c0,3.73,7.55,6.75,16.87,6.75s16.87-3,16.87-6.75V129C84,132.72,76.47,135.73,67.15,135.73Z"/><path class="cls-1" d="M67.15,87.16c-9.32,0-16.87,3-16.87,6.75v6.75c0,3.73,7.55,6.75,16.87,6.75s16.87-3,16.87-6.75V93.91C84,90.18,76.47,87.16,67.15,87.16Zm0,11.81C57.88,99,52,96,52,93.9s5.91-5.06,15.19-5.06,15.18,3,15.18,5.06S76.43,99,67.15,99Z"/><path class="cls-1" d="M68.44,93.13c-2-.32-2.76-.52-2.76-.84s.48-.55,2-.55a16.21,16.21,0,0,1,3.3.34l.66-1.1a17.05,17.05,0,0,0-3.33-.32v-.87H66v.93c-2.45.21-3.88.88-3.88,1.74s1.68,1.44,4.13,1.79c1.7.25,2.43.48,2.43.85s-.89.61-2.21.61a17.05,17.05,0,0,1-3.81-.43L62,96.42a19.67,19.67,0,0,0,3.9.42v.93h2.25v-1c2.64-.19,4.08-.94,4.08-1.81S71.17,93.54,68.44,93.13Z"/><path class="cls-1" d="M104.44,118.16c-9.32,0-16.87-3-16.87-6.75v6.75c0,3.73,7.55,6.75,16.87,6.75s16.87-3,16.87-6.75v-6.75C121.32,115.14,113.76,118.16,104.44,118.16Z"/><path class="cls-1" d="M104.44,126.95c-9.32,0-16.87-3-16.87-6.75v6.75c0,3.73,7.55,6.75,16.87,6.75s16.87-3,16.87-6.75V120.2C121.32,123.92,113.76,126.95,104.44,126.95Z"/><path class="cls-1" d="M104.44,135.73c-9.32,0-16.87-3-16.87-6.75v6.75c0,3.73,7.55,6.75,16.87,6.75s16.87-3,16.87-6.75V129C121.32,132.71,113.76,135.73,104.44,135.73Z"/><path class="cls-1" d="M104.44,95.94c-9.32,0-16.87,3-16.87,6.75v6.75c0,3.73,7.55,6.75,16.87,6.75s16.87-3,16.87-6.75v-6.75C121.32,99,113.76,95.94,104.44,95.94Zm0,11.81c-9.27,0-15.19-3-15.19-5.06s5.92-5.06,15.19-5.06,15.18,3,15.18,5.06S113.72,107.74,104.44,107.74Z"/><path class="cls-1" d="M105.73,101.91c-2-.32-2.76-.52-2.76-.84s.48-.55,2-.55a16.11,16.11,0,0,1,3.3.34l.66-1.11a18,18,0,0,0-3.33-.32v-.86h-2.25v.93c-2.45.21-3.88.89-3.88,1.75s1.68,1.44,4.13,1.79c1.7.24,2.43.48,2.43.85s-.89.6-2.21.6a17.09,17.09,0,0,1-3.81-.43l-.69,1.14a19.37,19.37,0,0,0,3.9.42v.93h2.25v-1c2.64-.19,4.08-.94,4.08-1.82S108.46,102.32,105.73,101.91Z"/><path class="cls-1" d="M141.48,112.46c-9.32,0-16.87,3-16.87,6.75V126c0,3.73,7.55,6.75,16.87,6.75s16.87-3,16.87-6.75v-6.75C158.35,115.48,150.79,112.46,141.48,112.46Zm0,11.81c-9.27,0-15.19-3-15.19-5.06s5.92-5.06,15.19-5.06,15.18,3,15.18,5.06S150.75,124.27,141.48,124.27Z"/><path class="cls-1" d="M142.76,118.43c-2-.32-2.76-.52-2.76-.84s.48-.55,2-.55a16.12,16.12,0,0,1,3.3.34l.66-1.11a18.07,18.07,0,0,0-3.33-.32v-.86h-2.25V116c-2.45.21-3.88.89-3.88,1.75s1.68,1.44,4.13,1.79c1.7.24,2.43.48,2.43.85s-.89.6-2.2.6a17.1,17.1,0,0,1-3.81-.43l-.69,1.14a19.37,19.37,0,0,0,3.9.43v.93h2.25v-1c2.64-.19,4.08-.94,4.08-1.82S145.49,118.85,142.76,118.43Z"/></svg>