<svg id="Layer_1" data-name="Layer 1" xmlns="http://www.w3.org/2000/svg" viewBox="0 0 120.66 167.51"><defs><style>.cls-1{fill:#fff;}</style></defs><title>core_p1</title><path class="cls-1" d="M26.34,49.94a11.72,11.72,0,0,0,12-7.07A11.36,11.36,0,0,0,34.8,29.34a30.46,30.46,0,0,0-5.09-2.64H25.26c-.5.23-1,.5-1.51.67A11.72,11.72,0,0,0,16.14,40.7,11.85,11.85,0,0,0,26.34,49.94Z"/><path class="cls-1" d="M86.31,42.22a5.77,5.77,0,0,0-7.37-3.5L41,52.24c-.55-.06-1.11-.1-1.69-.11-2.83,0-5.65-.06-8.48-.08v.26h-.12v1.32L29,57.07l0,.09-.1.19-.29.76L30.3,87.82l-2.94,3.29,0,0,0,0L24.2,87.67l1.75-29.84-.29-.76L23.85,53.4V52.05l-8,0C10.78,52.15,6.74,54,4,57.26a17,17,0,0,0-3.7,7.45,3.24,3.24,0,0,1-.28.6v39.91c.41,2.6,1.8,2.89,3.63,3.33a5.06,5.06,0,0,0,6.59-4.64c.08-.8.26-2.83.26-2.89q0-14.29,0-28.59v-1.6H12.6v2.27q0,42.91,0,85.83a19.47,19.47,0,0,0,.28,3.76c.51,2.56,2.46,3.83,4.65,4.81H21c4-1.39,5.29-4.29,5.27-8.38-.11-16.17,0-32.33,0-48.5v-2.12h2.34v2.08c0,16.11.08,32.22-.05,48.33,0,4.14,1.18,7.11,5.22,8.59h3.44c4-1.44,5.16-4.46,5.16-8.48q-.07-28.91,0-57.82h.08q0-10.14,0-20.28V64l10.43-3.71,30-10.69A5.77,5.77,0,0,0,86.31,42.22Z"/><path class="cls-1" d="M116.36,18.4C117,15.19,118,12.17,118,8.68,118,5,116.25,3,114.74,0c-.1,8.9-6.87,9.77-14.47,9.35-2.34-.13-6.55-2-10.59-3.15-2.82-.82-5.55-1.31-7.49-.63V3.84h-5V87.2h5V28.93c2.53-.95,6.29-.42,8.38.08,4.27,1,6.94,3.5,10.7,5.44,6.59,3.39,12.77,2.43,19.38-.09C116.32,30,115.18,24.41,116.36,18.4Z"/></svg>