<?xml version="1.0" encoding="UTF-8"?>
<svg width="198px" height="215px" viewBox="0 0 198 215" version="1.1" xmlns="http://www.w3.org/2000/svg" xmlns:xlink="http://www.w3.org/1999/xlink">
    <!-- Generator: Sketch 49 (51002) - http://www.bohemiancoding.com/sketch -->
    <title>Group 26</title>
    <desc>Created with Sketch.</desc>
    <defs></defs>
    <g id="Page-2" stroke="none" stroke-width="1" fill="none" fill-rule="evenodd">
        <g id="20180310" transform="translate(-1123.000000, -7634.000000)" fill-rule="nonzero">
            <g id="Group-26" transform="translate(1123.000000, 7634.000000)">
                <path d="M195.731581,54.3410654 L101.231716,0.591144154 C99.8458582,-0.197048051 98.15372,-0.197048051 96.7678625,0.591144154 L2.26799678,54.3410654 C0.863998773,55.1384959 0,56.6254371 0,58.2291164 L0,156.770779 C0,158.374458 0.863998773,159.861399 2.26799678,160.65883 L96.7678625,214.408751 C97.4610022,214.803057 98.2258605,215 99,215 C99.7741395,215 100.538998,214.803057 101.232137,214.408751 L195.732003,160.65883 C197.136001,159.861399 198,158.374458 198,156.770779 L198,58.2291164 C197.999578,56.6254371 197.135579,55.1384959 195.731581,54.3410654 Z" id="Shape" fill="#0769D5"></path>
                <g id="Group-17" transform="translate(47.000000, 58.000000)">
                    <rect id="Rectangle-path" fill="#DEDEDF" x="5.57041096" y="5.94398276" width="93.0378301" height="92.8913017"></rect>
                    <path d="M0.256723288,0.0600258621 L0.256723288,21.474181 C0.256723288,25.5255 3.5414137,28.9017414 7.696,28.9017414 C11.7537096,28.9017414 15.1352767,25.6222241 15.1352767,21.474181 L15.1352767,0.0600258621 L0.256723288,0.0600258621 Z" id="Shape" fill="#F0582F"></path>
                    <path d="M15.0384,0.0600258621 L15.0384,21.474181 C15.0384,25.5255 18.3230904,28.9017414 22.4776767,28.9017414 C26.5353863,28.9017414 29.9169534,25.6222241 29.9169534,21.474181 L29.9169534,0.0600258621 L15.0384,0.0600258621 Z" id="Shape" fill="#FFFFFC"></path>
                    <path d="M29.8200767,0.0600258621 L29.8200767,21.474181 C29.8200767,25.5255 33.1047671,28.9017414 37.2593534,28.9017414 C41.317063,28.9017414 44.6986301,25.6222241 44.6986301,21.474181 L44.6986301,0.0600258621 L29.8200767,0.0600258621 Z" id="Shape" fill="#F0582F"></path>
                    <path d="M44.6017534,0.0600258621 L44.6017534,21.474181 C44.6017534,25.5255 47.8864438,28.9017414 52.0410301,28.9017414 C56.0987397,28.9017414 59.4803068,25.6222241 59.4803068,21.474181 L59.4803068,0.0600258621 L44.6017534,0.0600258621 Z" id="Shape" fill="#FFFFFC"></path>
                    <g id="Group" transform="translate(59.265753, 0.000000)" fill="#F0582F">
                        <path d="M0.214268493,0.0600258621 L0.214268493,21.474181 C0.214268493,25.5255 3.49924384,28.9017414 7.65354521,28.9017414 C11.7112548,28.9017414 15.0928219,25.6222241 15.0928219,21.474181 L15.0928219,0.0600258621 L0.214268493,0.0600258621 Z" id="Shape"></path>
                        <path d="M29.7779068,0.0600258621 L29.7779068,21.474181 C29.7779068,25.5255 33.0628822,28.9017414 37.2171836,28.9017414 C41.2748932,28.9017414 44.6564603,25.6222241 44.6564603,21.474181 L44.6564603,0.0600258621 L29.7779068,0.0600258621 Z" id="Shape"></path>
                    </g>
                    <path d="M74.2616986,0.0600258621 L74.2616986,21.474181 C74.2616986,25.5255 77.546389,28.9017414 81.7009753,28.9017414 C85.7586849,28.9017414 89.1402521,25.6222241 89.1402521,21.474181 L89.1402521,0.0600258621 L74.2616986,0.0600258621 Z" id="Shape" fill="#FFFFFC"></path>
                    <rect id="Rectangle-path" fill="#414753" x="34.1675616" y="41.9236552" width="35.8432438" height="56.9116293"></rect>
                    <rect id="Rectangle-path" fill="#646B79" x="37.2593534" y="45.0105776" width="29.5633534" height="53.7285517"></rect>
                    <ellipse id="Oval" fill="#414753" cx="60.8325918" cy="71.922931" rx="2.41536438" ry="2.41156034"></ellipse>
                </g>
            </g>
        </g>
    </g>
</svg>