<?xml version="1.0" encoding="UTF-8"?>
<svg width="198px" height="215px" viewBox="0 0 198 215" version="1.1" xmlns="http://www.w3.org/2000/svg" xmlns:xlink="http://www.w3.org/1999/xlink">
    <!-- Generator: Sketch 49 (51002) - http://www.bohemiancoding.com/sketch -->
    <title>Group 24</title>
    <desc>Created with Sketch.</desc>
    <defs></defs>
    <g id="Page-2" stroke="none" stroke-width="1" fill="none" fill-rule="evenodd">
        <g id="20180310" transform="translate(-699.000000, -7634.000000)" fill-rule="nonzero">
            <g id="Group-24" transform="translate(699.000000, 7634.000000)">
                <g id="Group-48-Copy-2" fill="#0769D5">
                    <path d="M195.731581,54.3410654 L101.231716,0.591144154 C99.8458582,-0.197048051 98.15372,-0.197048051 96.7678625,0.591144154 L2.26799678,54.3410654 C0.863998773,55.1384959 0,56.6254371 0,58.2291164 L0,156.770779 C0,158.374458 0.863998773,159.861399 2.26799678,160.65883 L96.7678625,214.408751 C97.4610022,214.803057 98.2258605,215 99,215 C99.7741395,215 100.538998,214.803057 101.232137,214.408751 L195.732003,160.65883 C197.136001,159.861399 198,158.374458 198,156.770779 L198,58.2291164 C197.999578,56.6254371 197.135579,55.1384959 195.731581,54.3410654 Z" id="Shape"></path>
                </g>
                <g id="Group-5" transform="translate(55.000000, 61.000000)">
                    <path d="M32.3591932,34.889589 L16.9890441,35.6541644 C16.8611254,35.6541644 26.1089797,24.3139178 32.3591932,34.889589 Z" id="Shape" fill="#FFD630"></path>
                    <path d="M36.4408237,31.4494521 L27.3205864,6.66690411 C30.5095017,9.72520548 50.7266814,18.6442466 36.4408237,31.4494521 Z" id="Shape" fill="#FFD630"></path>
                    <path d="M32.3591932,34.889589 L32.3591932,34.826 L32.1039593,34.4435616 L17.2439763,35.3356164 L16.9887424,35.6541644 C16.7338102,35.6541644 26.8104203,45.4652603 32.3591932,34.889589 Z" id="Shape" fill="#FFD630"></path>
                    <path d="M36.4408237,31.4494521 L36.8873322,31.0670137 L28.2136034,7.55865753 L27.3205864,6.66660274 C27.1293119,7.17652055 18.3279661,29.3470959 36.4408237,31.4494521 Z" id="Shape" fill="#FFD630"></path>
                    <path d="M1.93748475,65.2785205 L26.1089797,41.5790959 C28.6601119,39.0946027 32.7420441,39.1581918 35.2292169,41.6426849 L36.0582746,42.5347397 L45.688678,52.3458356 L46.5177356,53.2378904 C49.0049085,55.786274 48.9412508,59.8638082 46.454078,62.3483014 L22.2825831,86.047726 C19.7314508,88.5322192 15.6495186,88.4686301 13.1623458,85.984137 L1.87382712,74.4528219 C-0.613345763,71.9044384 -0.549688136,67.8269041 1.93748475,65.342411 L1.93748475,65.2785205 Z M31.8487254,46.675863 L31.0196678,45.7838082 C30.8283932,45.5927397 30.5095017,45.5927397 30.3182271,45.7838082 L6.1467322,69.4832329 C5.95545763,69.6743014 5.95545763,69.9928493 6.1467322,70.1839178 L17.4352508,81.7152329 C17.6265254,81.9063014 17.9454169,81.9063014 18.1366915,81.7152329 L42.3081864,58.0158082 C42.499461,57.8247397 42.499461,57.5061918 42.3081864,57.3151233 L41.4791288,56.4230685 L31.8487254,46.6119726 L31.8487254,46.675863 Z" id="Shape" fill="#00CC96"></path>
                    <path d="M42.2445288,25.7794795 L66.4160237,2.08005479 C68.9671559,-0.404438356 73.0490881,-0.340849315 75.536261,2.14364384 L86.8247797,13.6749589 C89.3119525,16.2233425 89.2482949,20.3008767 86.761122,22.7853699 L62.5896271,46.4847945 C60.0384949,48.9692877 55.9565627,48.9056986 53.4693898,46.4212055 L52.6403322,45.5291507 L43.0735864,35.7180548 L43.0099288,35.7816438 L42.1808712,34.889589 C39.6933966,32.3415068 39.7570542,28.2639726 42.2445288,25.7794795 Z M56.849278,41.3880274 L57.6783356,42.2800822 C57.8696102,42.4711507 58.1885017,42.4711507 58.3797763,42.2800822 L82.5512712,18.5806575 C82.7425458,18.389589 82.7425458,18.0710411 82.5512712,17.8799726 L71.2627525,6.34865753 C71.071478,6.15758904 70.7525864,6.15758904 70.5613119,6.34865753 L46.3898169,30.0480822 C46.1985424,30.2391507 46.1985424,30.5576986 46.3898169,30.7487671 L47.2188746,31.6408219 L56.849278,41.4519178 L56.849278,41.3880274 Z" id="Shape" fill="#00CC96"></path>
                    <path d="M30.0629932,52.7915616 L52.5124136,30.8120548 C53.9792542,29.4103836 56.3391119,29.4103836 57.7422949,30.8756438 C59.145478,32.3409041 59.145478,34.6982192 57.6786373,36.0998904 L35.2292169,58.0793973 C33.7623763,59.4810685 31.4025186,59.4810685 29.9993356,58.0158082 C28.5961525,56.5505479 28.5961525,54.1932329 30.0629932,52.7915616 Z" id="Shape" fill="#FFD630"></path>
                </g>
            </g>
        </g>
    </g>
</svg>