<svg id="Layer_1" data-name="Layer 1" xmlns="http://www.w3.org/2000/svg" viewBox="0 0 612 611.84"><defs><style>.cls-1{fill:#959595;}.cls-1,.cls-2,.cls-3,.cls-4,.cls-5{fill-rule:evenodd;}.cls-2{fill:#ffcb33;}.cls-3{fill:#ba7200;}.cls-4{fill:#ff9500;}.cls-5{fill:#bddb00;}</style></defs><title>distribution_graph</title><path class="cls-1" d="M540.48,114,394.89,259.59A98.81,98.81,0,0,1,259.75,394.73L114.16,540.32A302.5,302.5,0,0,0,612,309.34,300.22,300.22,0,0,0,540.48,114Z"/><path class="cls-1" d="M210.65,309.34a98.31,98.31,0,0,1,7.49-37.73L55.2,145.36A302.71,302.71,0,0,0,95.6,523.24c1.23,1.23,2.48,2.43,3.72,3.63L243.41,382.79A98.63,98.63,0,0,1,210.65,309.34Z"/><path class="cls-1" d="M227.78,253.78A98.93,98.93,0,0,1,299,211V7A300.35,300.35,0,0,0,95.6,95.44a306.82,306.82,0,0,0-29,33.47Z"/><path class="cls-1" d="M523.4,95.44A300.36,300.36,0,0,0,319,7V210.94a98.7,98.7,0,0,1,63.95,32.3L527,99.16C525.83,97.92,524.63,96.67,523.4,95.44Z"/><path class="cls-2" d="M533.48,107,387.89,252.59A98.81,98.81,0,0,1,252.75,387.73L107.16,533.32A302.5,302.5,0,0,0,605,302.34,300.22,300.22,0,0,0,533.48,107Z"/><path class="cls-3" d="M203.65,302.34a98.31,98.31,0,0,1,7.49-37.73L48.2,138.36A302.71,302.71,0,0,0,88.6,516.24c1.23,1.23,2.48,2.43,3.72,3.63L236.41,375.79A98.63,98.63,0,0,1,203.65,302.34Z"/><path class="cls-4" d="M220.78,246.78A98.93,98.93,0,0,1,292,204V0A300.35,300.35,0,0,0,88.6,88.44a306.82,306.82,0,0,0-29,33.47Z"/><path class="cls-5" d="M516.4,88.44A300.36,300.36,0,0,0,312,0V203.94a98.7,98.7,0,0,1,63.95,32.3L520,92.16C518.83,90.92,517.63,89.67,516.4,88.44Z"/></svg>