<svg id="Layer_1" data-name="Layer 1" xmlns="http://www.w3.org/2000/svg" viewBox="0 0 650 180"><defs><style>.cls-1{font-size:15px;font-family:Helvetica, Helvetica;letter-spacing:0.04em;}.cls-2{fill:#fff;}</style></defs><title>PPPP</title><text class="cls-1" transform="translate(529.94 92.2)">X</text><path class="cls-2" d="M265.49,69.24h-48.1v54.2h-12V63.28A6.15,6.15,0,0,1,207.12,59,5.7,5.7,0,0,1,209,57.7a6.19,6.19,0,0,1,2.4-.46h54.06Zm-5.36,27.14H222.19V84.29h37.95Z"/><path class="cls-2" d="M286,63.28H274V52.43h12Zm0,60.15H274V73.53h12Z"/><path class="cls-2" d="M352.83,123.43h-12V95.73a10.58,10.58,0,0,0-.81-4.22,9.86,9.86,0,0,0-2.19-3.21,9.53,9.53,0,0,0-3.25-2.05,11.2,11.2,0,0,0-4-.72h-21v37.9h-12V79.48a5.91,5.91,0,0,1,.46-2.33,5.75,5.75,0,0,1,1.29-1.89A6.15,6.15,0,0,1,301.22,74a6.07,6.07,0,0,1,2.35-.46h27.05a24.23,24.23,0,0,1,4.78.51,22.92,22.92,0,0,1,5,1.64,24.21,24.21,0,0,1,4.71,2.86,19.19,19.19,0,0,1,4,4.2,20.72,20.72,0,0,1,2.75,5.7,24.31,24.31,0,0,1,1,7.29Z"/><path class="cls-2" d="M411.69,123.43H379.15a19.23,19.23,0,0,1-5.45-.88,16,16,0,0,1-5.47-2.89,16.18,16.18,0,0,1-4.2-5.22,16.76,16.76,0,0,1-1.69-7.87V90.33a17.71,17.71,0,0,1,.39-3.6A18.45,18.45,0,0,1,364,83a17.56,17.56,0,0,1,2.15-3.58,14.1,14.1,0,0,1,3.19-3,16.31,16.31,0,0,1,4.32-2.08,18.11,18.11,0,0,1,5.54-.78h32.55v12H379.15a4.9,4.9,0,0,0-3.58,1.2,5,5,0,0,0-1.22,3.69v16.16a4.88,4.88,0,0,0,1.25,3.6,5,5,0,0,0,3.65,1.25h32.45Z"/><path class="cls-2" d="M433.81,123.43h-12v-71h12Zm43.3,0h-12V90.33a4.91,4.91,0,0,0-1.2-3.58,4.84,4.84,0,0,0-3.6-1.22H438.65v-12H460.3a17.85,17.85,0,0,1,3.6.39,18.54,18.54,0,0,1,3.76,1.22,17.46,17.46,0,0,1,3.58,2.15,14.14,14.14,0,0,1,3,3.18,16.31,16.31,0,0,1,2.08,4.32,18.06,18.06,0,0,1,.79,5.54Z"/><path class="cls-2" d="M539.61,106.91a18.55,18.55,0,0,1-.88,5.38,16,16,0,0,1-2.84,5.36,15.84,15.84,0,0,1-5.12,4.13,16.35,16.35,0,0,1-7.69,1.66H501.43a18.53,18.53,0,0,1-5.38-.88,16,16,0,0,1-5.36-2.84,15.8,15.8,0,0,1-4.13-5.12,16.35,16.35,0,0,1-1.66-7.69,18.77,18.77,0,0,1,.88-5.4,16,16,0,0,1,2.84-5.38A15.82,15.82,0,0,1,493.75,92a16.35,16.35,0,0,1,7.69-1.66h21.65v11.45H501.43a4.81,4.81,0,0,0-3.78,1.5,5.38,5.38,0,0,0-1.34,3.72,4.55,4.55,0,0,0,1.55,3.67,5.48,5.48,0,0,0,3.67,1.32h21.56a4.85,4.85,0,0,0,3.79-1.48,5.29,5.29,0,0,0,1.34-3.69V90.06a4.92,4.92,0,0,0-1.45-3.74,5.11,5.11,0,0,0-3.67-1.38H496.73V73.53h26.36a18.58,18.58,0,0,1,5.38.88,16.1,16.1,0,0,1,5.36,2.84A15.85,15.85,0,0,1,538,82.37a16.35,16.35,0,0,1,1.66,7.69Z"/><path class="cls-2" d="M562,63.28H550V52.43h12Zm0,60.15H550V73.53h12Z"/><path class="cls-2" d="M628.85,123.43h-12V95.73a10.58,10.58,0,0,0-.81-4.22,9.86,9.86,0,0,0-2.19-3.21,9.53,9.53,0,0,0-3.25-2.05,11.2,11.2,0,0,0-4-.72h-21v37.9h-12V79.48a5.91,5.91,0,0,1,.46-2.33,5.75,5.75,0,0,1,1.29-1.89A6.15,6.15,0,0,1,577.24,74a6.07,6.07,0,0,1,2.35-.46h27.05a24.23,24.23,0,0,1,4.78.51,22.92,22.92,0,0,1,5,1.64,24.21,24.21,0,0,1,4.71,2.86,19.19,19.19,0,0,1,4,4.2,20.72,20.72,0,0,1,2.75,5.7,24.31,24.31,0,0,1,1,7.29Z"/><path class="cls-2" d="M97.08,165.8a75.68,75.68,0,1,1,75.68-75.68A75.76,75.76,0,0,1,97.08,165.8Zm0-150.15a74.48,74.48,0,1,0,74.48,74.48A74.56,74.56,0,0,0,97.08,15.65Z"/><path class="cls-2" d="M97.08,19.76a70.36,70.36,0,0,0-53.29,116.3L55.3,115.47l5.1-9H50.55v-9H65.49l6-10.66H46v-9H76.61l16.57-29.3h0a6.11,6.11,0,0,1,5.26-3.17H148l-4.72,14.17a6.11,6.11,0,0,1-5.64,3.84H109a6.11,6.11,0,0,0-5.24,3L97.34,77.77h31.57v9H92.27l-6,10.66h30.92v9h-36L57.6,148.37A70.36,70.36,0,1,0,97.08,19.76Z"/></svg>