<?xml version="1.0" encoding="UTF-8"?>
<svg width="139px" height="64px" viewBox="0 0 139 64" version="1.1" xmlns="http://www.w3.org/2000/svg" xmlns:xlink="http://www.w3.org/1999/xlink">
    <!-- Generator: Sketch 48.2 (47327) - http://www.bohemiancoding.com/sketch -->
    <title>Group</title>
    <desc>Created with Sketch.</desc>
    <defs></defs>
    <g id="FINCHAIN_VER1.0_20180208" stroke="none" stroke-width="1" fill="none" fill-rule="evenodd" transform="translate(-520.000000, -169.000000)">
        <g id="Group" transform="translate(520.000000, 169.000000)" fill="#FFFFFF" fill-rule="nonzero">
            <g id="Shape">
                <path d="M42.12,33.36 C39.96,31.56 39.72,28.2 41.52,26.04 L42.6,24.72 L37.2,24.72 L37.2,33.84 L42.72,33.84 L42.12,33.36 Z"></path>
                <g>
                    <path d="M52.56,17.64 C54.72,17.64 56.64,18.48 58.2,19.68 L59.4,15.48 L51.36,12 L42.36,15 L46.2,20.4 C47.76,18.72 50.04,17.64 52.56,17.64 Z"></path>
                    <path d="M41.64,28.92 C41.64,26.76 42.48,24.84 43.68,23.28 L39.6,22.2 L36.12,30.24 L39.12,39.24 L44.52,35.4 C42.72,33.84 41.64,31.44 41.64,28.92 Z"></path>
                    <path d="M31.56,42.6 C33.72,42.6 35.64,43.44 37.2,44.64 L38.4,40.44 L30.36,36.96 L21.36,39.96 L25.2,45.36 C26.64,43.68 28.92,42.6 31.56,42.6 Z"></path>
                    <path d="M81.84,23.88 L56.16,2.16 C54.6,0.84 52.68,0.12 50.52,0.12 C48,0.12 45.72,1.2 44.04,3 L0.48,54.72 L10.32,63 L30.48,39 L49.92,55.44 C51.36,56.64 53.28,57.24 55.32,57.24 C57.72,57.24 60,56.28 61.56,54.6 L63.96,51.72 L38.16,30 L51.6,14.04 L80.4,38.4 L82.8,35.64 C83.88,34.2 84.6,32.4 84.6,30.36 C84.6,27.72 83.52,25.44 81.84,23.88 Z"></path>
                </g>
                <g transform="translate(54.000000, 0.600000)">
                    <path d="M32.28,45.72 C30.12,45.72 28.2,44.88 26.64,43.68 L25.44,47.88 L33.48,51.36 L42.48,48.36 L38.64,42.96 C37.2,44.64 34.92,45.72 32.28,45.72 Z"></path>
                    <path d="M43.32,34.32 C43.32,36.48 42.48,38.4 41.28,39.96 L45.48,41.16 L48.96,33.12 L45.72,24 L40.32,27.84 C42.12,29.52 43.32,31.8 43.32,34.32 Z"></path>
                    <path d="M53.4,20.76 C51.24,20.76 49.32,19.92 47.76,18.72 L46.56,22.92 L54.6,26.4 L63.6,23.4 L59.76,18 C58.2,19.68 55.92,20.76 53.4,20.76 Z"></path>
                    <path d="M3.12,39.36 L28.8,61.08 C30.36,62.4 32.28,63.12 34.44,63.12 C36.96,63.12 39.24,62.04 40.92,60.24 L84.6,8.52 L74.76,0.24 L54.48,24.24 L35.04,7.8 C33.6,6.6 31.68,6 29.64,6 C27.24,6 24.96,6.96 23.4,8.64 L21,11.52 L46.8,33.36 L33.36,49.32 L4.56,24.96 L2.16,27.72 C1.08,29.16 0.36,30.96 0.36,33 C0.24,35.52 1.44,37.8 3.12,39.36 Z"></path>
                </g>
            </g>
        </g>
    </g>
</svg>