<?xml version="1.0" encoding="UTF-8"?>
<svg width="1132px" height="488px" viewBox="0 0 1132 488" version="1.1" xmlns="http://www.w3.org/2000/svg" xmlns:xlink="http://www.w3.org/1999/xlink">
    <!-- Generator: Sketch 49 (51002) - http://www.bohemiancoding.com/sketch -->
    <title>final copy</title>
    <desc>Created with Sketch.</desc>
    <defs></defs>
    <g id="final-copy" stroke="none" stroke-width="1" fill="none" fill-rule="evenodd">
        <g id="Group" transform="translate(34.000000, 46.000000)" fill="#FFFFFF">
            <path d="M49.5,0 L346.963654,7.10542736e-15 C374.301749,2.08350076e-15 396.463654,22.1619049 396.463654,49.5 L396.463654,346.5 C396.463654,373.838095 374.301749,396 346.963654,396 L49.5,396 C22.1619049,396 3.34795107e-15,373.838095 0,346.5 L0,49.5 C-3.34795107e-15,22.1619049 22.1619049,5.0219266e-15 49.5,0 Z M91.8328709,214.83 L91.8328709,197.01 L148.67387,197.01 C150.316077,197.01 151.647348,195.680286 151.647348,194.04 L151.647348,168.3 C151.647348,166.659714 150.316077,165.33 148.67387,165.33 L91.8328709,165.33 L91.8328709,131.047383 C91.8328709,130.500621 92.276628,130.057383 92.8240301,130.057383 L156.603143,130.057383 C158.24535,130.057383 159.576621,128.727669 159.576621,127.087383 L159.576621,91.08 C159.576621,89.4397143 158.24535,88.11 156.603143,88.11 L53.5225933,88.11 C51.8803871,88.11 50.5491159,89.4397143 50.5491159,91.08 L50.5491159,165.33 L33.6994106,165.33 C32.0572044,165.33 30.7259332,166.659714 30.7259332,168.3 L30.7259332,194.04 C30.7259332,195.680286 32.0572044,197.01 33.6994106,197.01 L50.5491159,197.01 L50.5491159,214.83 L33.6994106,214.83 C32.0572044,214.83 30.7259332,216.159714 30.7259332,217.8 L30.7259332,243.54 C30.7259332,245.180286 32.0572044,246.51 33.6994106,246.51 L50.5491159,246.51 L50.5491159,304.92 C50.5491159,306.560286 51.8803871,307.89 53.5225933,307.89 L88.8593935,307.89 C90.5015998,307.89 91.8328709,306.560286 91.8328709,304.92 L91.8328709,246.51 L128.850688,246.51 C130.492894,246.51 131.824165,245.180286 131.824165,243.54 L131.824165,217.8 C131.824165,216.159714 130.492894,214.83 128.850688,214.83 L91.8328709,214.83 Z M198.25501,128.7 C209.190248,128.7 218.05501,119.835238 218.05501,108.9 C218.05501,97.964762 209.190248,89.1 198.25501,89.1 L198.208644,89.1 C187.273406,89.1 178.408644,97.964762 178.408644,108.9 C178.408644,119.835238 187.273406,128.7 198.208644,128.7 L198.25501,128.7 Z M216.07501,306.9 C217.168534,306.9 218.05501,306.013524 218.05501,304.92 L218.05501,170.28 C218.05501,169.186476 217.168534,168.3 216.07501,168.3 L180.388644,168.3 C179.295121,168.3 178.408644,169.186476 178.408644,170.28 L178.408644,304.92 C178.408644,306.013524 179.295121,306.9 180.388644,306.9 L216.07501,306.9 Z M283.554656,306.9 C284.64818,306.9 285.534656,306.013524 285.534656,304.92 L285.534656,210.15167 C285.534656,209.058146 286.421132,208.17167 287.514656,208.17167 L315.374456,208.17167 C320.842075,208.17167 325.274456,212.604051 325.274456,218.07167 L325.274456,304.92 C325.274456,306.013524 326.160932,306.9 327.254456,306.9 L362.766562,306.9 C363.860086,306.9 364.746562,306.013524 364.746562,304.92 L364.746562,188.1 C364.746562,177.164762 355.8818,168.3 344.946562,168.3 L247.787466,168.3 C246.693942,168.3 245.807466,169.186476 245.807466,170.28 L245.807466,304.92 C245.807466,306.013524 246.693942,306.9 247.787466,306.9 L283.554656,306.9 Z" id="Combined-Shape" fill-rule="nonzero"></path>
            <path d="M850.437721,128.7 L850.391356,128.7 C839.456118,128.7 830.591356,119.835238 830.591356,108.9 L830.591356,108.9 C830.591356,97.964762 839.456118,89.1 850.391356,89.1 L850.437721,89.1 C861.372959,89.1 870.237721,97.964762 870.237721,108.9 L870.237721,108.9 C870.237721,119.835238 861.372959,128.7 850.437721,128.7 Z" id="Path-Copy"></path>
            <path d="M790.968173,306.9 L711.629077,306.9 C700.693839,306.9 691.829077,298.035238 691.829077,287.1 L691.829077,247.329102 C691.829077,236.393864 700.693839,227.529102 711.629077,227.529102 L769.390565,227.529102 C770.484089,227.529102 771.370565,226.642626 771.370565,225.549102 L771.370565,217.593207 C771.370565,212.105763 766.922113,207.657311 761.43467,207.657311 L710.914315,207.657311 C709.820791,207.657311 708.934315,206.770835 708.934315,205.677311 L708.934315,170.28 C708.934315,169.186476 709.820791,168.3 710.914315,168.3 L790.968173,168.3 C801.903411,168.3 810.768173,177.164762 810.768173,188.1 L810.768173,287.1 C810.768173,298.035238 801.903411,306.9 790.968173,306.9 Z M765.181807,281.16 C768.462379,281.16 771.121807,278.500571 771.121807,275.22 L771.121807,257.4 C771.121807,254.119429 768.462379,251.46 765.181807,251.46 L737.415442,251.46 C734.134871,251.46 731.475442,254.119429 731.475442,257.4 L731.475442,275.22 C731.475442,278.500571 734.134871,281.16 737.415442,281.16 L765.181807,281.16 Z" id="Combined-Shape"></path>
            <path d="M868.257721,306.9 L832.571356,306.9 C831.477832,306.9 830.591356,306.013524 830.591356,304.92 L830.591356,170.28 C830.591356,169.186476 831.477832,168.3 832.571356,168.3 L868.257721,168.3 C869.351245,168.3 870.237721,169.186476 870.237721,170.28 L870.237721,304.92 C870.237721,306.013524 869.351245,306.9 868.257721,306.9 Z" id="Path-Copy-3"></path>
            <path d="M531.263615,306.9 L434.104519,306.9 C423.169281,306.9 414.304519,298.035238 414.304519,287.1 L414.304519,188.1 C414.304519,177.164762 423.169281,168.3 434.104519,168.3 L531.263615,168.3 C532.357139,168.3 533.243615,169.186476 533.243615,170.28 L533.243615,206.544551 C533.243615,207.638075 532.357139,208.524551 531.263615,208.524551 L463.838305,208.524551 C458.370686,208.524551 453.938305,212.956932 453.938305,218.424551 L453.938305,257.952041 C453.938305,263.41966 458.370686,267.852041 463.838305,267.852041 L531.263615,267.852041 C532.357139,267.852041 533.243615,268.738517 533.243615,269.832041 L533.243615,304.92 C533.243615,306.013524 532.357139,306.9 531.263615,306.9 Z" id="Path-Copy-11"></path>
            <path d="M588.541273,306.9 L553.064479,306.9 C551.970956,306.9 551.084479,306.013524 551.084479,304.92 L551.084479,91.08 C551.084479,89.9864762 551.970956,89.1 553.064479,89.1 L588.541273,89.1 C589.634796,89.1 590.521273,89.9864762 590.521273,91.08 L590.521273,165.990322 C590.521273,167.083846 591.407749,167.970322 592.501273,167.970322 L650.223576,167.970322 C661.158814,167.970322 670.023576,176.835084 670.023576,187.770322 L670.023576,304.92 C670.023576,306.013524 669.137099,306.9 668.043576,306.9 L632.533084,306.9 C631.43956,306.9 630.553084,306.013524 630.553084,304.92 L630.553084,217.958555 C630.553084,212.490936 626.120703,208.058555 620.653084,208.058555 L592.501273,208.058555 C591.407749,208.058555 590.521273,208.945031 590.521273,210.038555 L590.521273,304.92 C590.521273,306.013524 589.634796,306.9 588.541273,306.9 Z" id="Path-Copy-15"></path>
            <path d="M927.808094,306.9 L892.040904,306.9 C890.94738,306.9 890.060904,306.013524 890.060904,304.92 L890.060904,170.28 C890.060904,169.186476 890.94738,168.3 892.040904,168.3 L989.2,168.3 C1000.13524,168.3 1009,177.164762 1009,188.1 L1009,304.92 C1009,306.013524 1008.11352,306.9 1007.02,306.9 L971.507894,306.9 C970.41437,306.9 969.527894,306.013524 969.527894,304.92 L969.527894,218.07167 C969.527894,212.604051 965.095513,208.17167 959.627894,208.17167 L931.768094,208.17167 C930.674571,208.17167 929.788094,209.058146 929.788094,210.15167 L929.788094,304.92 C929.788094,306.013524 928.901618,306.9 927.808094,306.9 Z" id="Path-Copy-8"></path>
        </g>
    </g>
</svg>